<?xml version="1.0" encoding="UTF-8" standalone="no"?>
<!DOCTYPE svg PUBLIC "-//W3C//DTD SVG 1.1//EN" "http://www.w3.org/Graphics/SVG/1.1/DTD/svg11.dtd">
<svg width="100%" height="100%" viewBox="0 0 512 512" version="1.1" xmlns="http://www.w3.org/2000/svg" xmlns:xlink="http://www.w3.org/1999/xlink" xml:space="preserve" xmlns:serif="http://www.serif.com/" style="fill-rule:evenodd;clip-rule:evenodd;stroke-linejoin:round;stroke-miterlimit:2;">
    <g transform="matrix(0.62291,0,0,0.62291,-62.930017,-77.830335)">
        <g transform="matrix(0.5,0,0,0.5,0,0)">
            <rect x="0" y="0" width="2048" height="2048" style="fill:rgb(207,221,196);fill-rule:nonzero;"/>
        </g>
        <g transform="matrix(0.5,0,0,0.5,0,0)">
            <path d="M603.411,584.055C632.003,531.495 663.13,461.134 724.502,442.622C789.07,423.145 851.829,476.022 879.453,529.92C890.927,536.287 893.359,538.066 899.133,550.339C897.587,566.465 895.103,574.491 885.215,587.827C884.121,607.132 879.291,619.502 870.727,636.677C859.641,658.913 854.426,668.023 834.163,682.214C826.088,706.488 832.431,746.845 797.862,727.345C788.652,737.604 785.337,741.684 773.331,748.203L769.163,756.085C764.905,757.628 760.622,759.1 756.315,760.501C748.498,774.353 747.324,776.167 732.901,782.151C740.251,798.688 746.129,812.856 749.821,830.89C762.357,832.357 764.993,832.548 773.469,842.313C818.047,826.3 825.201,852.403 837.851,888.512C831.761,911.352 840.841,938.732 823.284,960.274C815.702,969.578 794.814,978.899 794.239,990.301C806.971,1022.78 821.638,1041.21 820.925,1079.76C846.653,1106.68 878.034,1128.64 911.171,1145.48C935.185,1130.04 945.689,1134.4 973.523,1129.84C981.112,1128.59 1017.04,1102.79 1017.46,1135.08C1017.61,1146.62 982.578,1159.27 978.997,1168.5C981.296,1171.29 1010,1174.51 1019.25,1178.66C1055.96,1195.1 1081.89,1222.8 1117.37,1241.21C1125.28,1230.56 1134.26,1219.21 1140.58,1207.63C1110.06,1190.37 1117.66,1176.49 1126.98,1148.3C1119.78,1123.36 1128.14,1111.46 1138.96,1089.1C1103.12,1083.42 1074.69,1086.64 1051.04,1053.47C1039.85,1037.77 1036.73,1020.36 1037.02,1001.3C1037.15,992.4 1052.29,989.675 1059.04,987.916C1078.92,982.738 1099.82,979.131 1119.11,971.998C1120.64,963.516 1122.15,949.228 1129.22,943.714C1132.42,941.226 1138.45,940.887 1142.55,938.762C1146.9,936.505 1156.31,928.172 1159.91,926.747C1183.85,917.822 1213.62,918.529 1238.3,923.303C1255.75,926.678 1277.3,934.794 1286.59,950.674C1311.34,992.984 1321.12,1041.63 1336.42,1087.66C1340.66,1100.39 1352.88,1106.99 1357.27,1119.23C1359.4,1125.03 1358.72,1129.61 1358.07,1135.49L1357.72,1138.65C1367.84,1151.95 1378.56,1158.48 1387.85,1170.59C1396.22,1181.5 1399.71,1199.86 1410.58,1210.8C1432.73,1233.09 1459.9,1251.58 1482.85,1272.64C1545.91,1330.5 1617.9,1410.47 1632.39,1497.73C1637.46,1528.28 1632.78,1552.79 1630.57,1581.87C1647.45,1598.91 1664.45,1599.44 1686.96,1597.08C1705.38,1595.14 1723.26,1592.47 1741.45,1589.06C1757.39,1586.06 1770.99,1579.51 1786.46,1575.97C1787.3,1576.37 1788.13,1576.76 1788.97,1577.16C1792.1,1581.23 1792.2,1583.62 1791.45,1588.83C1789.74,1600.77 1781.38,1609.76 1772.02,1616.5C1744.98,1635.97 1718.39,1636.42 1686.64,1639.47C1672.81,1640.8 1659.09,1642.85 1645.05,1643.24C1637.31,1643.46 1623.44,1640.14 1616.96,1641.31C1611.06,1642.38 1609.13,1661.06 1598.67,1662.02C1574.62,1664.24 1546.52,1663.01 1522.43,1663.26C1489.23,1663.82 1456.02,1664.03 1422.82,1663.89C1411.01,1663.85 1398.62,1664.26 1386.92,1663.58C1374.54,1662.86 1376.72,1648.81 1377.69,1640.94C1367.94,1641.01 1345.56,1642.67 1338.09,1636.01C1329.09,1627.99 1342.28,1609.16 1349.2,1603.97C1355.72,1599.13 1364.89,1596.69 1372.66,1594.94C1358.76,1576.72 1356.93,1567.39 1356.62,1544.76C1348.65,1543.1 1342.59,1540.66 1335.45,1543.97C1329.48,1552.32 1339.15,1558.71 1333.36,1568.14C1330.48,1570.63 1327.05,1570.49 1323.18,1570.89C1325.67,1583.07 1328.08,1589.34 1312.76,1588.34C1305.92,1592.78 1315.89,1599.6 1309.04,1606.5C1302.73,1607.39 1301.84,1604.97 1298.74,1607.21C1297.19,1614.85 1304.37,1616.85 1305.58,1624.16C1302.59,1632.62 1295.14,1631.28 1288,1632.89C1286.61,1637.33 1285.81,1642 1282.47,1644.86C1276.6,1645.82 1273.13,1641.16 1268.78,1637.39C1262.54,1653.57 1256.82,1675.41 1240.87,1683.49C1227.51,1690.25 1164.71,1688.47 1154.56,1683.71C1151.31,1682.16 1148.89,1679.28 1147.92,1675.82C1144.17,1662.17 1159.51,1635.49 1173.67,1632.22C1180.23,1630.7 1188.23,1630.53 1194.99,1629.27C1217.36,1604.04 1224.58,1543.9 1232.5,1509.59C1225.08,1502.78 1214,1491.74 1206.78,1485.89C1205.57,1489.73 1204.97,1493.27 1201.97,1495.87C1190.13,1499.11 1180.86,1465.84 1177.4,1456.53C1174.05,1461.5 1170.67,1468.59 1163.95,1465.06C1158.48,1457.18 1159.27,1438.71 1158.98,1428.44C1138.83,1452.63 1140.91,1418.35 1135.77,1406.34C1132.62,1406.7 1128.44,1407.09 1126.19,1404.46C1119.44,1396.54 1118.04,1380 1117.44,1370C1112.27,1373.13 1108.46,1376.37 1102.48,1375.31C1097.24,1372.18 1094.57,1365.77 1089.15,1361.15L1087.37,1361.84C1085.37,1362.6 1085.03,1362.73 1082.83,1362.92C1075.26,1359.04 1070.88,1339.78 1067.81,1331.15C1064.85,1333.73 1063.12,1335.89 1059.32,1336.41C1049.94,1334.44 1046.45,1310.27 1041.4,1300.45C1019.99,1306.95 1031.56,1287.32 1017.57,1283.3C1015.63,1282.74 1013.5,1284.96 1009.62,1282.49C1003.21,1273.88 1012.33,1249.2 1002.82,1250.91C987.649,1253.63 985.221,1262.28 968.078,1245.14L966.846,1243.89C948.047,1253.55 926.039,1261.9 904.36,1255.72C895.855,1253.29 885.977,1246.17 878.668,1241.08C883.953,1279.12 887.237,1302.22 870.854,1338.03C925.617,1375.75 974.118,1422.41 1015.4,1474.65C1033.37,1497.38 1058.53,1534.22 1063.96,1561.82C1073.43,1609.95 1037.9,1675.48 985.714,1680.66C945.6,1686.12 909.426,1681.14 870.307,1680.95C845.041,1707.58 821.295,1725.31 782.728,1725.79C746.801,1726.25 705.647,1719.73 670.112,1714.36C625.211,1707.72 580.36,1700.75 535.564,1693.44C509.712,1689.12 478.4,1682.73 453.008,1679.47C449.57,1676.32 445.924,1672.79 442.239,1669.99C435.986,1674.6 432.152,1678.45 424.527,1679.42C416.189,1678.32 387.982,1678.82 378.465,1678.83C368.022,1678.85 341.731,1678.05 332.797,1679.14C329.876,1677.26 327.162,1675.63 326.896,1671.88C325.065,1646.07 350.581,1611.5 360.183,1587.85C346.125,1579.74 340.18,1575.63 345.044,1557.27C349.879,1539.02 358.631,1521.26 368.368,1505.15C384.399,1480 390.879,1480.04 417.211,1488.52C408.116,1476.42 398.815,1463.92 392.743,1449.99C385.039,1432.31 388.881,1424.61 371.913,1412.69C370.379,1406.51 368.494,1398.86 368.23,1392.89C366.849,1361.66 374.993,1348.98 350.094,1325.24C329.235,1305.35 348.521,1267.02 355.898,1243.49C353.699,1235.66 350.934,1228.48 348.393,1220.76C342.234,1202.04 349.691,1182.92 355.676,1164.55L355.003,1163.19C347.517,1148.22 332.64,1134.9 330.913,1118.61C328.085,1091.94 337.747,1060.94 340.766,1033.94C349.568,955.225 353.161,875.567 376.525,799.376C396.397,734.571 448.018,668.834 504.723,631.631C505.783,616.06 508.428,610.446 520.571,599.859C523.037,597.733 525.55,595.664 528.109,593.651C542.382,537.032 569.234,560.147 603.411,584.055Z" style="fill:rgb(14,14,11);fill-rule:nonzero;"/>
        </g>
        <g transform="matrix(0.5,0,0,0.5,0,0)">
            <path d="M422.393,1496.08C439.39,1510.93 454.611,1520.54 473.585,1532.41C438.898,1571.86 422.606,1608.76 437.985,1660.94C432.618,1664.99 426.716,1668.49 423.695,1674.26C423.642,1677 423.619,1676.84 424.527,1679.42C416.189,1678.32 387.982,1678.82 378.465,1678.83C368.022,1678.85 341.731,1678.05 332.797,1679.14C337.743,1667.98 338.686,1654.38 344.027,1642.79C351.942,1625.62 362.477,1610.03 368.964,1592.25C382.444,1555.76 386.693,1519.21 422.393,1496.08Z" style="fill:rgb(92,91,81);fill-rule:nonzero;"/>
        </g>
        <g transform="matrix(0.5,0,0,0.5,0,0)">
            <path d="M553.284,566.707C557.104,570.749 558.767,581.86 562.953,587.157C587.929,618.768 611.61,657.068 645.341,680.094C658.016,688.746 670.418,692.328 681.947,703.251L682.946,704.216C681.247,745.417 681.862,769.993 704.53,806.185C709.42,813.993 721.313,842.111 729.141,844.031L729.956,842.252C729.033,824.525 707.75,791.604 698.565,774.887C707.209,776.996 712.406,778.506 720.757,781.54C734.615,801.742 740.993,831.907 745.822,855.542C735.064,862.772 728.352,866.383 733.2,880.867C735.656,888.206 735.169,895.51 734.96,903.178L743.895,911.19C743.838,915.411 743.958,919.585 744.05,923.804C751.804,936.417 751.362,931.183 755.806,947.39C760.095,951.478 766.227,954.939 771.336,958.111C786.705,1004.42 806.878,1022.56 811.428,1072.86C796.733,1058.01 784.666,1045.19 767.631,1032.7C752.994,1021.96 734.892,1014.75 722.473,1001.91C712.116,991.2 717.806,977.076 712.926,964.79C700.772,934.197 685.383,904.924 673.964,873.97C662.927,844.677 659.367,813.32 646.857,784.509C640.833,769.863 631.856,759.349 619.523,749.575C591.208,727.135 556.237,716.793 522.208,733.273C456.149,765.268 407.504,850.312 440.82,921.622C456.137,954.405 480.671,962.354 512.368,973.227C521.202,987.624 552.805,1054.65 567.187,1057.36C572.766,1058.41 577.559,1054.32 581.873,1051.38C623.105,1112.36 627.272,1126.53 695.86,1162.9C719.101,1175.43 743.825,1184.53 768.941,1192.58C788.865,1198.96 810.102,1204.04 829.295,1212.23C831.456,1219.53 832.108,1221.07 836.093,1227.36C838.339,1224.12 840.857,1219.36 842.853,1215.84C853.032,1219.36 861.052,1225.2 868.459,1232.86C876.032,1268.3 879.205,1313.01 854.938,1343.16C849.628,1349.76 844.215,1354.47 837.799,1360.02C846.929,1339.24 853.123,1318.48 852.17,1295.53C851.675,1283.61 849.682,1236.79 838.912,1231.03L837.163,1231.71C834.935,1237.34 842.364,1276.81 842.949,1288.28C843.766,1302.38 842.596,1316.52 839.474,1330.29C820.459,1411.09 744.716,1364.78 692.47,1350.22C570.662,1316.29 484.195,1341.69 378.007,1403.35C377.731,1391.43 377.471,1375.89 378.074,1364.19C379.455,1337.41 365.472,1330.5 351.869,1310.88L351.103,1309.76C349.806,1276.96 360.456,1270.54 366.187,1241.9C352.328,1203.01 353.671,1205.57 365.907,1164.95C355.562,1139.13 338.202,1130.2 340.548,1102.11C342.023,1084.45 345.715,1067.67 348.854,1050.28C351.932,1033.23 353.02,1018.63 354.492,1001.62C363.518,897.242 371.296,779.424 445.816,698.239C458.931,683.952 472.553,669.999 487.456,657.461C495.754,650.48 505.47,643.905 513.382,636.735L514.126,636.05C517.053,613.822 521.676,613.852 536.975,598.573C539.695,584.786 542.297,576.011 553.284,566.707Z" style="fill:rgb(68,100,74);fill-rule:nonzero;"/>
        </g>
        <g transform="matrix(0.5,0,0,0.5,0,0)">
            <path d="M687.111,1183.48C732.1,1193.48 767.087,1223.88 735.119,1272.06C720.834,1293.59 697.611,1301.1 672.987,1305.15C669.824,1305.22 668.89,1305.14 665.872,1304.79C662.792,1302.36 663.793,1303.85 662.628,1300.24C665.687,1294.06 673.704,1294.99 680.516,1293.79C713.222,1288.04 753.297,1252.65 731.765,1217.34C724.222,1204.97 697.832,1201.82 688.012,1191.4C685.963,1189.23 686.866,1186.14 687.111,1183.48Z" style="fill:rgb(14,14,11);fill-rule:nonzero;"/>
        </g>
        <g transform="matrix(0.5,0,0,0.5,0,0)">
            <path d="M572.127,1345.41C607.786,1340.86 672.291,1353.96 706.746,1365.42C779.582,1389.65 807.135,1403.76 865.615,1346.92C895.917,1365.19 946.924,1411.25 970.788,1437.45C1005.61,1477.33 1055.12,1529.68 1055.65,1585.55C1055.91,1612.89 1027.5,1659.44 1000.76,1667.04C965.02,1677.2 915.774,1673.55 877.972,1671.54C908.053,1624.18 903.438,1592.37 878.361,1543.73C856.333,1501 826.692,1465.85 792.92,1431.87C779.803,1418.67 765.1,1402.41 749.428,1392.49C746.612,1393.38 747.903,1392.65 745.948,1395.48C746.017,1402.69 754.4,1408.94 759.405,1413.65C811.82,1462.92 893.219,1545.38 887.867,1622.54C883.483,1646.5 868.302,1670.21 850.945,1687.04C808.091,1728.58 749.314,1715.86 695.769,1708.24C661.626,1703.45 627.527,1698.36 593.476,1692.95L515.886,1680.58C500.514,1678.11 485.32,1675.93 470.052,1672.68C444.9,1667.31 440.443,1652.57 441.411,1628.89C442.932,1591.7 457.357,1562.36 484.491,1537.29C547.266,1567.24 620.293,1570.88 679.527,1610.43C686.655,1615.19 715.405,1635.74 721.559,1635.26L723.163,1633.15C723.276,1626.04 711.67,1619.71 706.565,1615.87C684.765,1599.43 659.538,1585.67 634.077,1575.94C558.36,1547.01 465.141,1541.58 414.782,1469.31C401.098,1449.67 395.152,1432.39 389.673,1409.44C430.788,1375.11 518.756,1349.93 572.127,1345.41Z" style="fill:rgb(137,150,102);fill-rule:nonzero;"/>
        </g>
        <g transform="matrix(0.5,0,0,0.5,0,0)">
            <path d="M1349.11,1143.55C1357.91,1151.6 1376.99,1171.11 1382.87,1181.02C1390.53,1194.86 1394.49,1208.23 1405.75,1219.81C1424.21,1238.8 1447.99,1254.73 1467.34,1272.26C1546.77,1344.27 1635.62,1436.6 1623.79,1553.07C1622.92,1566.41 1616.53,1583.69 1628.11,1594.22C1640.39,1605.4 1659.25,1608.96 1675.39,1607.49C1713.1,1604.08 1747.29,1598.98 1782.88,1585.51C1768.67,1620.15 1734.66,1624.83 1701.93,1628.7C1666.44,1632.9 1645.03,1635.53 1609.05,1630.27C1606.25,1624.98 1603.48,1617.89 1597.98,1615.83C1594.81,1617.01 1596.08,1616.04 1594.16,1619.03C1593.13,1627.02 1609.21,1642.71 1602.36,1648.49C1592.87,1656.49 1554,1654.31 1541.89,1654.24L1463.79,1654.88C1446.91,1654.97 1426.11,1655.42 1409.56,1654.2C1412.68,1648.41 1417.93,1641.34 1420.07,1636.14C1419.6,1632.59 1420.16,1634.3 1417.65,1631.1C1406.48,1628.27 1402.36,1662.15 1388.95,1654.72C1380.61,1650.09 1387.96,1639.2 1392.45,1633.97C1418.44,1603.74 1449.83,1632.16 1481.23,1629.61C1485.04,1629.3 1485.85,1627.91 1487.75,1625.39C1487.17,1623.22 1487.62,1623.46 1484.54,1622.09C1467.61,1614.57 1447.19,1607.29 1433.94,1593.59C1414.45,1573.44 1403.43,1549.13 1415.42,1521.41C1416.07,1518.11 1424.85,1504.23 1424.79,1502.29C1424.31,1488.69 1427.03,1482.7 1440.21,1473.46C1466.29,1455.18 1491,1454.62 1521.73,1459.49L1522.88,1459.37C1525.87,1459.03 1527.3,1459.14 1529.8,1457.49C1530.75,1454.31 1530.67,1455.97 1529.36,1452.37C1521.62,1445.17 1502.79,1446.05 1492.69,1446.28C1459.62,1447.05 1435.06,1461.38 1413.49,1485.17C1408.45,1495.33 1415.42,1498.6 1407.69,1512.93C1398.99,1529.08 1399.99,1546.82 1403.09,1564.56C1379.09,1542.58 1370.76,1539.18 1339.37,1532.9C1342.41,1530.7 1349.21,1526.24 1349.46,1522.7C1349.98,1515.38 1339.7,1497.38 1351,1492.86C1363.22,1487.99 1362.14,1471.06 1350.51,1465.7L1348.03,1465.93C1343.59,1471.69 1346.89,1476.1 1349.72,1481.98C1345.63,1485.33 1340.37,1489.42 1336.53,1492.9C1336.71,1505.07 1337.17,1507.79 1341.12,1519.35C1332.47,1525.85 1328.56,1528.17 1322.81,1537.51C1324.18,1545.5 1326.59,1552.06 1322.73,1558.78C1320.19,1560.39 1319.36,1560.18 1316.35,1560.47C1311.62,1565.44 1314.6,1574.1 1315.85,1580.53C1296.02,1575.94 1297.03,1584.01 1305.45,1598.84C1299.45,1596.01 1296.95,1593.92 1290.64,1595.87C1283.07,1603.54 1292.6,1617.5 1296.6,1625.47C1291.55,1624.13 1286.68,1622.74 1281.53,1621.82L1275.03,1629.65C1266.16,1627.01 1262.75,1627.02 1257.72,1636.86C1253.66,1644.79 1251.84,1654.46 1248.37,1662.69C1242.93,1681.73 1213.07,1678.4 1195.77,1677.94C1198.86,1672.92 1205.64,1664.66 1199.75,1659.8C1191.77,1660.62 1188.99,1670.95 1187.14,1677.61L1171.77,1676.95C1174.76,1670.72 1182.35,1657.35 1181.5,1651.52L1179.39,1649.35C1170.21,1649.45 1166.23,1672.4 1159.59,1676.95L1157.84,1676.6C1152.86,1662.42 1165.42,1645.08 1178.88,1641.63C1201.17,1635.9 1208.03,1637.88 1217.37,1614.96C1229.75,1573.47 1248.56,1499.64 1244.39,1455.68C1243.31,1444.3 1226.52,1407.36 1221.59,1393.62C1208.66,1357.64 1205.19,1333.55 1225.91,1299.5C1231.39,1290.49 1240.68,1278.36 1244.85,1269.29C1244.47,1265.58 1245.02,1267.39 1242.32,1263.99L1240.12,1264.07C1234.34,1268.31 1228.92,1277.03 1224.71,1283.08C1217.2,1257.5 1203.99,1273.85 1191.7,1278.53C1189.73,1278.36 1187.5,1278.48 1186.49,1276.11C1179.57,1259.75 1187.56,1225.02 1189.28,1209.03C1217.93,1219.86 1258.53,1220.54 1280.73,1196.89C1283.71,1193.72 1290.06,1178.55 1294.13,1174.77C1302.33,1175.96 1302.94,1177.13 1308.68,1165.93C1325.43,1159.65 1334.27,1153.94 1349.11,1143.55Z" style="fill:rgb(145,105,67);fill-rule:nonzero;"/>
        </g>
        <g transform="matrix(0.5,0,0,0.5,0,0)">
            <path d="M1217.37,1614.96C1232.45,1613.69 1244,1602.23 1250.77,1589.7C1270.99,1552.26 1289.98,1513.14 1302.35,1472.42C1307.8,1454.51 1310.48,1370.03 1330.35,1367.73C1331.92,1369.97 1331.6,1371.06 1331.68,1373.86C1333.61,1375.49 1336.22,1377.45 1336.07,1380.04C1335.14,1396.81 1328.65,1406.06 1335.95,1423.18C1339.86,1432.36 1361.14,1452.12 1355.59,1460.93C1355.25,1461.47 1353.57,1462.94 1353.03,1463.43C1355.76,1463.25 1358.43,1462.55 1360.39,1464.84C1381.72,1489.7 1380.67,1492.71 1413.49,1485.17C1408.45,1495.33 1415.42,1498.6 1407.69,1512.93C1398.99,1529.08 1399.99,1546.82 1403.09,1564.56C1379.09,1542.58 1370.76,1539.18 1339.37,1532.9C1342.41,1530.7 1349.21,1526.24 1349.46,1522.7C1349.98,1515.38 1339.7,1497.38 1351,1492.86C1363.22,1487.99 1362.14,1471.06 1350.51,1465.7L1348.03,1465.93C1343.59,1471.69 1346.89,1476.1 1349.72,1481.98C1345.63,1485.33 1340.37,1489.42 1336.53,1492.9C1336.71,1505.07 1337.17,1507.79 1341.12,1519.35C1332.47,1525.85 1328.56,1528.17 1322.81,1537.51C1324.18,1545.5 1326.59,1552.06 1322.73,1558.78C1320.19,1560.39 1319.36,1560.18 1316.35,1560.47C1311.62,1565.44 1314.6,1574.1 1315.85,1580.53C1296.02,1575.94 1297.03,1584.01 1305.45,1598.84C1299.45,1596.01 1296.95,1593.92 1290.64,1595.87C1283.07,1603.54 1292.6,1617.5 1296.6,1625.47C1291.55,1624.13 1286.68,1622.74 1281.53,1621.82L1275.03,1629.65C1266.16,1627.01 1262.75,1627.02 1257.72,1636.86C1253.66,1644.79 1251.84,1654.46 1248.37,1662.69C1242.93,1681.73 1213.07,1678.4 1195.77,1677.94C1198.86,1672.92 1205.64,1664.66 1199.75,1659.8C1191.77,1660.62 1188.99,1670.95 1187.14,1677.61L1171.77,1676.95C1174.76,1670.72 1182.35,1657.35 1181.5,1651.52L1179.39,1649.35C1170.21,1649.45 1166.23,1672.4 1159.59,1676.95L1157.84,1676.6C1152.86,1662.42 1165.42,1645.08 1178.88,1641.63C1201.17,1635.9 1208.03,1637.88 1217.37,1614.96Z" style="fill:rgb(190,156,112);fill-rule:nonzero;"/>
        </g>
        <g transform="matrix(0.5,0,0,0.5,0,0)">
            <path d="M1331.68,1373.86C1333.61,1375.49 1336.22,1377.45 1336.07,1380.04C1335.14,1396.81 1328.65,1406.06 1335.95,1423.18C1339.86,1432.36 1361.14,1452.12 1355.59,1460.93C1355.25,1461.47 1353.57,1462.94 1353.03,1463.43C1331.56,1436.23 1308.61,1409.48 1331.68,1373.86Z" style="fill:rgb(14,14,11);fill-rule:nonzero;"/>
        </g>
        <g transform="matrix(0.5,0,0,0.5,0,0)">
            <path d="M1409.56,1654.2C1412.68,1648.41 1417.93,1641.34 1420.07,1636.14C1419.6,1632.59 1420.16,1634.3 1417.65,1631.1C1406.48,1628.27 1402.36,1662.15 1388.95,1654.72C1380.61,1650.09 1387.96,1639.2 1392.45,1633.97C1418.44,1603.74 1449.83,1632.16 1481.23,1629.61C1485.04,1629.3 1485.85,1627.91 1487.75,1625.39C1487.17,1623.22 1487.62,1623.46 1484.54,1622.09C1467.61,1614.57 1447.19,1607.29 1433.94,1593.59C1414.45,1573.44 1403.43,1549.13 1415.42,1521.41C1416.07,1518.11 1424.85,1504.23 1424.79,1502.29C1424.31,1488.69 1427.03,1482.7 1440.21,1473.46C1466.29,1455.18 1491,1454.62 1521.73,1459.49C1529.04,1460.44 1546.76,1466.47 1544.2,1475.93C1540.32,1478.09 1518.17,1477.49 1511.6,1477.82C1466.2,1480.05 1425.61,1524.38 1447.06,1569.81C1466.41,1610.79 1550.31,1603.01 1541.89,1654.24L1463.79,1654.88C1446.91,1654.97 1426.11,1655.42 1409.56,1654.2Z" style="fill:rgb(190,156,112);fill-rule:nonzero;"/>
        </g>
        <g transform="matrix(0.5,0,0,0.5,0,0)">
            <path d="M553.042,735.38C566.194,735.054 575.655,737.529 587.314,742.344C650.529,768.455 643.866,820.893 664.091,876.132C676.544,910.142 694.141,943.52 707.538,977.277C676.06,985.31 642.992,994.769 615.866,1013.07C599.414,1024.17 584.834,1037.22 569.039,1049.11C560.221,1037.51 553.723,1026.07 546.566,1013.51C537.83,998.008 491.552,910.242 483.296,904.937C481.227,903.607 480.731,903.814 478.584,904.46L477.748,906.53C478.623,918.019 499.915,949.402 506.507,961.965C494.489,957.47 481.033,951.472 471.091,943.261C396.274,881.474 470.474,743.88 553.042,735.38Z" style="fill:rgb(137,150,102);fill-rule:nonzero;"/>
        </g>
        <g transform="matrix(0.5,0,0,0.5,0,0)">
            <path d="M701.473,987.929C708.509,989.399 716.213,1011.43 722.247,1014.85C762.781,1037.82 789.747,1065.08 823.205,1096.44C850.08,1121.84 881.139,1142.4 915.014,1157.23C933.449,1138.49 947.823,1144.59 971.306,1140.02C978.503,1138.62 1005.26,1123 1008.08,1132.52C1005.06,1143.89 965.806,1158.64 966.671,1167.63C968.533,1186.95 994.237,1225.62 990.311,1244.54C989.16,1245.91 988.984,1246.8 987.684,1246.61C981.059,1245.64 971.445,1234.72 967.552,1229.94L958.099,1237.98C946.414,1244.28 921.013,1250.62 907.849,1246.99C887.3,1241.33 871.586,1217.17 851.798,1209.67C830.41,1201.56 807.423,1194.69 785.545,1187.68C736.24,1171.91 676.158,1149.31 638.753,1112.64C624.465,1098.63 600.287,1062.15 589.657,1044.81C627.794,1012.3 655.281,1003.12 701.473,987.929Z" style="fill:rgb(243,211,182);fill-rule:nonzero;"/>
        </g>
        <g transform="matrix(0.5,0,0,0.5,0,0)">
            <path d="M656.132,1112.53C665.604,1112.96 682.588,1114.9 690.572,1120.9C693.427,1123.04 692.837,1124.34 693.016,1127.51C686.102,1129.19 665.524,1124.54 659.42,1120.16C656.377,1117.98 656.684,1115.83 656.132,1112.53Z" style="fill:rgb(14,14,11);fill-rule:nonzero;"/>
        </g>
        <g transform="matrix(0.5,0,0,0.5,0,0)">
            <path d="M1113.16,983.269C1151.5,967.649 1137.85,960.147 1159.63,938.63C1175.5,922.95 1238.95,930.323 1257.62,939.462C1278.67,947.704 1290.43,977.846 1297.97,997.443C1311.73,1033.24 1320.53,1071.19 1333.93,1107.42C1327.62,1113.04 1322.37,1117.48 1315.18,1122.04C1314.34,1108.71 1294.37,1014.22 1286.91,1007.99L1285.27,1008.21C1282.62,1011.7 1281.28,1017.89 1282.11,1021.97C1292.48,1072.51 1319.93,1113 1297.04,1164.97C1296.95,1156.55 1297.23,1138.62 1291.98,1131.78L1290.46,1131.35C1277,1139.88 1305.2,1204 1228.39,1206.03C1152.04,1208.05 1206.99,1146.59 1194.09,1130.67C1190.64,1129.69 1192.26,1129.54 1189.07,1131.04C1183.34,1138.4 1181.57,1152.82 1180.24,1161.94C1178,1152.91 1176.67,1146.75 1176.8,1137.34C1177.14,1112.14 1192.82,1091.73 1201.09,1068.84C1204.61,1059.09 1204.08,1048.65 1207.16,1038.84C1210.52,1026.51 1232.96,995.35 1219.31,986.161C1217.38,986.585 1214.86,987.537 1214.32,989.542C1210.36,1004.1 1203.87,1020.39 1198.9,1034.2C1192.66,1051.56 1190.33,1071.22 1180.83,1087.19C1177.24,1097.32 1174.26,1107.42 1170.44,1117.55C1156.7,1068.83 1127.07,1082.19 1089.56,1073.29L1087.92,1072.89C1096.68,1072.3 1123.16,1073.31 1128.4,1065.22C1121.44,1050.39 1067,1085.57 1048.87,1028.87C1064.19,1019.4 1071.48,1015.17 1069.3,995.49C1083.68,991.02 1098.07,988.271 1113.16,983.269Z" style="fill:rgb(145,105,67);fill-rule:nonzero;"/>
        </g>
        <g transform="matrix(0.5,0,0,0.5,0,0)">
            <path d="M1113.16,983.269C1114.17,985.865 1115.48,992.926 1115.47,995.647C1115.38,1009.45 1125.43,1023.08 1138.42,1028.09C1171.02,1040.67 1178.44,1051.43 1180.83,1087.19C1177.24,1097.32 1174.26,1107.42 1170.44,1117.55C1156.7,1068.83 1127.07,1082.19 1089.56,1073.29L1087.92,1072.89C1096.68,1072.3 1123.16,1073.31 1128.4,1065.22C1121.44,1050.39 1067,1085.57 1048.87,1028.87C1064.19,1019.4 1071.48,1015.17 1069.3,995.49C1083.68,991.02 1098.07,988.271 1113.16,983.269Z" style="fill:rgb(190,156,112);fill-rule:nonzero;"/>
        </g>
        <g transform="matrix(0.5,0,0,0.5,0,0)">
            <path d="M1153.58,966.883C1159.24,969.349 1168.11,975.869 1167.64,982.646L1165.07,984.278C1158.57,984.063 1150.97,985.066 1148.68,977.867C1149.21,973.224 1151.13,970.895 1153.58,966.883Z" style="fill:rgb(14,14,11);fill-rule:nonzero;"/>
        </g>
        <g transform="matrix(0.5,0,0,0.5,0,0)">
            <path d="M715.623,554.909C747.723,530.879 801.654,546.564 837.407,551.438C852.119,570.469 851.406,577.479 875.826,586.91C871.734,609.35 858.956,645.717 843.686,663.69C837.827,670.024 826.417,676.549 823.128,684.735C818.144,697.143 818.941,712.294 816.041,725.51L815.704,727.011C809.557,722.53 795.038,709.18 788.051,714.251C786.539,717.695 787.742,721.397 788.44,725.238C784.511,729.352 779.869,732.855 775.417,736.413C768.937,731.189 759.978,723.309 751.428,724.961L750.418,726.574C752.945,734.225 765.63,737.823 760.626,747.336C757.031,750.202 753.775,750.504 749.247,751.575C734.909,781.951 720.878,773.241 694.924,762.493C688.312,738.115 695.395,721.226 689.44,699.184C686.127,686.922 654.078,677.251 643.916,668.096C624.468,650.577 608.244,632.372 593.413,610.73C601.44,600.033 607.428,592.022 614.909,580.81C633.784,593.511 638.715,594.331 661.169,592.01C665.276,592.984 666.352,592.896 670.653,592.93C667.035,605.863 662.862,631.573 678.557,639.128C681.203,640.402 684.524,641.535 687.37,640.408C689.221,633.211 675.448,621.962 675.125,614.522C674.391,597.622 694.553,552.7 716.713,566.534C728.858,574.116 717.647,586.098 725.482,595.391L727.984,595.6C742.68,581.772 727.435,563.933 715.623,554.909Z" style="fill:rgb(243,211,182);fill-rule:nonzero;"/>
        </g>
        <g transform="matrix(0.5,0,0,0.5,0,0)">
            <path d="M791.85,649.04C800.505,652.258 811.027,667.291 812.091,676.44C800.023,674.427 788.508,661.894 791.85,649.04Z" style="fill:rgb(14,14,11);fill-rule:nonzero;"/>
        </g>
        <g transform="matrix(0.5,0,0,0.5,0,0)">
            <path d="M698.23,602.31C702.405,603.411 702.584,603.727 704.401,606.64C704.999,611.258 703.144,614.875 701.55,619.392C691.374,615.649 694.436,610.069 698.23,602.31Z" style="fill:rgb(14,14,11);fill-rule:nonzero;"/>
        </g>
        <g transform="matrix(0.5,0,0,0.5,0,0)">
            <path d="M1111.41,1285.59C1120.22,1245.84 1129.14,1245.76 1149.14,1211.46C1157.71,1196.76 1164.56,1174.71 1169.77,1158.23C1177.24,1174.55 1177.76,1197.42 1189.28,1209.03C1187.56,1225.02 1179.57,1259.75 1186.49,1276.11C1187.5,1278.48 1189.73,1278.36 1191.7,1278.53C1203.99,1273.85 1217.2,1257.5 1224.71,1283.08C1207.87,1310.38 1195.75,1336.46 1204.06,1369.13C1207.22,1381.59 1212.85,1401.04 1217.97,1412.49C1233.71,1447.65 1239.45,1459.44 1234.21,1498.29C1224.62,1490.07 1217.46,1482.33 1208.77,1473.15L1196.47,1481.32C1191.01,1469.39 1188.6,1451.49 1181.62,1445.23C1174.77,1443.3 1172.9,1447.64 1169.19,1452.78C1168.86,1443.74 1169.41,1414.19 1156.92,1413.99C1152.69,1416.03 1151.3,1419.07 1148.63,1423.04C1147.36,1413.9 1146.97,1387.32 1135.72,1387.13C1132.12,1389.08 1131.66,1389.74 1128.69,1392.68C1126.71,1380.71 1127.21,1379.35 1126.98,1368.24C1126.75,1357.28 1133.15,1335.41 1129.73,1328.34L1128.01,1327.33C1122.73,1329.21 1121.95,1332.04 1120.25,1336.93C1117.91,1334.7 1116,1329.4 1114.61,1326.24C1118.23,1316.66 1125.86,1299.45 1124.48,1290.11C1122.28,1286.9 1123.69,1288.26 1119.6,1286.48C1116.98,1286.42 1114.04,1285.93 1111.41,1285.59Z" style="fill:rgb(190,156,112);fill-rule:nonzero;"/>
        </g>
        <g transform="matrix(0.5,0,0,0.5,0,0)">
            <path d="M978.845,1179.3C1041.49,1187.81 1059.27,1220.84 1111.67,1249.34C1106.89,1262.25 1101.58,1272.98 1103.76,1286.87C1105.76,1286.74 1109.3,1285.97 1111.41,1285.59C1114.04,1285.93 1116.98,1286.42 1119.6,1286.48C1123.69,1288.26 1122.28,1286.9 1124.48,1290.11C1125.86,1299.45 1118.23,1316.66 1114.61,1326.24C1116,1329.4 1117.91,1334.7 1120.25,1336.93L1118.41,1358.98C1113.96,1361.87 1108.65,1364.42 1103.89,1366.87C1096.5,1351.46 1097.1,1352.54 1083.95,1347.24C1080.9,1346.01 1079.28,1328.73 1070.9,1321.4C1067.54,1320 1065.77,1320.61 1062.11,1321.08L1060.67,1321.27C1052.37,1314.08 1055.8,1291.55 1041.72,1290.46C1028.55,1289.44 1032.96,1278.54 1025.9,1270.46C1022.09,1268.8 1022.59,1269.61 1017.43,1270.95C1012.18,1267.81 1018.92,1252.67 1014.48,1246.58C1011.28,1242.19 1003.39,1242.9 1002.25,1239.52C999.19,1230.51 997.127,1222.5 993.328,1213.55C987.806,1202.82 983.097,1190.6 978.845,1179.3Z" style="fill:rgb(190,156,112);fill-rule:nonzero;"/>
        </g>
        <g transform="matrix(0.5,0,0,0.5,0,0)">
            <path d="M978.845,1179.3C1041.49,1187.81 1059.27,1220.84 1111.67,1249.34C1106.89,1262.25 1101.58,1272.98 1103.76,1286.87C1096.21,1284.31 1085.91,1274.52 1079.85,1269.01C1055.76,1247.11 1026.41,1219.81 993.328,1213.55C987.806,1202.82 983.097,1190.6 978.845,1179.3Z" style="fill:rgb(145,105,67);fill-rule:nonzero;"/>
        </g>
        <g transform="matrix(0.5,0,0,0.5,0,0)">
            <path d="M1119.6,1286.48C1123.69,1288.26 1122.28,1286.9 1124.48,1290.11C1125.86,1299.45 1118.23,1316.66 1114.61,1326.24C1111.94,1328.95 1111.38,1329.58 1107.99,1328.34C1102.49,1319.75 1114.43,1294.21 1119.6,1286.48Z" style="fill:rgb(14,14,11);fill-rule:nonzero;"/>
        </g>
        <g transform="matrix(0.5,0,0,0.5,0,0)">
            <path d="M740.446,449.227C753.509,448.298 765.086,448.573 777.719,452.144C812.287,461.913 851.309,497.145 868.453,528.014C841.836,528.062 814.854,529.976 787.993,530.081C740.484,529.684 703.528,521.893 658.119,508.54C680.423,478.172 702.43,456.907 740.446,449.227Z" style="fill:rgb(145,129,97);fill-rule:nonzero;"/>
        </g>
        <g transform="matrix(0.5,0,0,0.5,0,0)">
            <path d="M792.917,845.132C804.352,846.628 809.028,850.704 817.257,858.013C820.641,872.876 826.813,876.894 826.875,894.273C826.941,912.886 828.348,930.798 819.42,948.202C814.287,958.208 797.294,976.845 785.146,969.825C782.744,966.197 783.258,968.094 783.161,964.048C788.171,957.677 797.516,963.649 802.34,959.646C798.299,945.972 759.678,955.635 763.09,937.172C769.138,932.441 802.976,944.193 812.655,933.578C808.511,923.268 767.825,933.194 752.67,921.957C751.916,919.49 751.88,919.666 752.285,917.136C761.418,905.697 811.776,917.73 815.397,902.416C809.683,895.892 751.788,913.07 743.933,896.714C746.443,879.411 811.588,882.377 809.692,869.017C797.302,859.581 756.433,881.569 739.719,876.563L739.113,873.403C749.314,860.873 777.33,849.543 792.917,845.132Z" style="fill:rgb(243,211,182);fill-rule:nonzero;"/>
        </g>
        <g transform="matrix(0.5,0,0,0.5,0,0)">
            <path d="M653.595,516.214C679.995,525.116 703.56,528.415 730.481,534.107C707.032,546.311 676.436,564.635 670.653,592.93C666.352,592.896 665.276,592.984 661.169,592.01C661.238,587.242 662.017,589.115 659.819,585.809C649.413,580.505 641.135,586.971 621.217,574.038C631.265,555.059 642.866,534.899 653.595,516.214Z" style="fill:rgb(145,129,97);fill-rule:nonzero;"/>
        </g>
        <g transform="matrix(0.5,0,0,0.5,0,0)">
            <path d="M1365.61,1548.36C1386.35,1559.07 1390.71,1568.47 1406.62,1581.95C1407.51,1581.96 1411.3,1581.88 1411.94,1582.48C1418.43,1588.64 1424.67,1597.01 1430.86,1603.32C1435.41,1607.96 1440.21,1611.42 1445.18,1615.07C1425.48,1609.63 1411.9,1606.32 1394.48,1619.73C1389.65,1623.96 1387.54,1626.48 1383.39,1631.35C1375.57,1631.34 1349.21,1633.03 1344.96,1627.84C1344.51,1621.13 1353.98,1611.89 1359.65,1609.21C1365.69,1606.36 1382.91,1603.85 1386.78,1598.99C1385.27,1592.23 1374.31,1583.43 1371.38,1576.35C1366.89,1565.53 1366.19,1559.8 1365.61,1548.36Z" style="fill:rgb(145,105,67);fill-rule:nonzero;"/>
        </g>
        <g transform="matrix(0.5,0,0,0.5,0,0)">
            <path d="M1148.69,1093.51C1174.86,1110.65 1158.91,1192.55 1140.55,1197.36C1119.82,1183.83 1129.49,1166.82 1137.88,1148.77C1135.9,1143.39 1133.97,1138 1132.09,1132.59C1135.74,1118.76 1141.79,1105.98 1148.69,1093.51Z" style="fill:rgb(145,105,67);fill-rule:nonzero;"/>
        </g>
        <g transform="matrix(0.5,0,0,0.5,0,0)">
            <path d="M392.848,1492.11C397.431,1492.07 402.409,1492.06 406.325,1494.35L406.767,1496.27C402.675,1502.86 394.782,1507.02 390.002,1514.44C377.034,1534.57 371.112,1556.17 364.121,1578.72C361.274,1577.83 354.159,1574.39 351.111,1573.02C357.211,1547.21 371.262,1508.36 392.848,1492.11Z" style="fill:rgb(92,91,81);fill-rule:nonzero;"/>
        </g>
        <g transform="matrix(0.5,0,0,0.5,0,0)">
            <path d="M853.124,534.909C869.539,534.285 883.252,538.124 888.505,554.782C886.707,563.768 885.147,567.512 881.354,575.595L879.482,576.833C864.061,576.933 839.957,550.44 853.124,534.909Z" style="fill:rgb(145,129,97);fill-rule:nonzero;"/>
        </g>
        <g transform="matrix(0.5,0,0,0.5,0,0)">
            <path d="M1342.21,1114.73L1343.4,1115.04C1348.13,1119.17 1348.58,1123.87 1349.92,1129.88C1342.28,1137.38 1328.01,1145.36 1318.5,1151.09C1317.2,1151.67 1315.71,1152.1 1314.34,1152.56L1312.82,1151.4C1312.07,1146.62 1314.33,1139.46 1315.51,1134.44C1322.61,1128.58 1334.49,1120.39 1342.21,1114.73Z" style="fill:rgb(190,156,112);fill-rule:nonzero;"/>
        </g>
        <g transform="matrix(0.5,0,0,0.5,0,0)">
            <path d="M561.857,570.604C571.004,573.194 589.803,583.825 594.282,592.162C594.132,596.148 594.175,594.909 591.521,598.729C589.429,600.87 590.41,600.376 587.651,601.101C580.406,597.134 566.599,577.946 561.857,570.604Z" style="fill:rgb(68,100,74);fill-rule:nonzero;"/>
        </g>
        <g transform="matrix(0.5,0,0,0.5,0,0)">
            <path d="M1049.86,998.976C1055.64,998.578 1057.99,998.259 1060.6,1003.55C1060.2,1009.99 1058.14,1011.56 1053.46,1016.18C1049.91,1017.54 1048.76,1016.83 1045.91,1014.95C1042.47,1008.58 1045.44,1003.59 1049.86,998.976Z" style="fill:rgb(145,105,67);fill-rule:nonzero;"/>
        </g>
        <g transform="matrix(0.5,0,0,0.5,0,0)">
            <path d="M751.372,839.928C755.847,840.516 761.835,840.256 763.144,844.955L761.54,846.979C758.821,848.558 757.851,849.504 754.738,849.241C751.989,846.193 752.335,844.359 751.372,839.928Z" style="fill:rgb(207,221,196);fill-rule:nonzero;"/>
        </g>
        <g transform="matrix(0.5,0,0,0.5,0,0)">
            <path d="M1136.1,949.649C1138.12,950.825 1137.26,950.041 1138.28,952.444C1137.4,956.739 1135.2,958.883 1132.51,962.388C1128.57,958.601 1133.67,952.893 1136.1,949.649Z" style="fill:rgb(145,129,97);fill-rule:nonzero;"/>
        </g>
    </g>
</svg>
