<?xml version="1.0" encoding="UTF-8" standalone="no"?>
<!DOCTYPE svg PUBLIC "-//W3C//DTD SVG 1.1//EN" "http://www.w3.org/Graphics/SVG/1.1/DTD/svg11.dtd">
<svg width="100%" height="100%" viewBox="0 0 1024 1024" version="1.1" xmlns="http://www.w3.org/2000/svg" xmlns:xlink="http://www.w3.org/1999/xlink" xml:space="preserve" xmlns:serif="http://www.serif.com/" style="fill-rule:evenodd;clip-rule:evenodd;stroke-linejoin:round;stroke-miterlimit:2;">
    <g transform="matrix(1,0,0,1,-37.640216,-22.334758)">
        <g transform="matrix(1.76554,0,0,1.76554,2.880268,22.334758)">
            <g transform="matrix(0.302124,0,0,0.2832,0.477,0)">
                <rect x="0" y="0" width="2048" height="2048" style="fill:rgb(208,223,195);fill-rule:nonzero;"/>
            </g>
            <g transform="matrix(0.5,0,0,0.5,-201.509,-201.007415)">
                <path d="M701.612,603.319C726.456,562.458 742.462,517.785 785.198,495.341C804.997,484.862 828.199,482.861 849.5,489.794C882.248,500.248 912.601,529.511 928.074,559.94C937.072,564.488 939.67,566.941 943.463,576.068C942.727,587.703 940.75,597.06 932.649,605.77C931.566,623.695 927.339,633.496 918.647,649.063C909.258,665.877 908.924,671.698 891.309,681.679C887.672,689.045 887.117,695.445 886.093,703.46C892.75,707.676 899.337,712.002 905.852,716.436C925.775,710.45 945.893,704.565 965.76,696.771C996.346,684.773 1032.77,663.022 1066.91,668.501C1081.91,670.908 1098.39,682.591 1113.62,686.247C1155.43,696.28 1197.64,705.242 1239.86,713.287C1260,700.959 1275.86,689.914 1293.7,674.043C1305.65,663.417 1318.44,650.294 1331.08,640.919C1345.14,630.488 1367.28,631.034 1383.18,621.775C1409.31,606.541 1430.9,582.073 1459.74,571.733C1472.87,567.027 1482.61,574.752 1492.99,581.765C1515.82,597.18 1538.89,611.505 1562.89,624.99C1578.67,633.926 1594.73,642.369 1611.04,650.307C1620.07,654.747 1630.56,659.67 1639.49,664.559C1641.52,665.674 1640.94,670.028 1641.01,672.719C1641.14,718.211 1642.52,770.888 1641.13,815.883L1641,823.682C1641.3,857.126 1641.32,890.572 1641.08,924.017L1641.08,932.098C1641.7,974.318 1641.83,1016.54 1641.47,1058.76C1641.41,1085.41 1642.09,1116.11 1641.11,1142.49L1641.36,1150.18C1641.85,1170.45 1641.34,1191.69 1641.13,1212.04L1641.02,1220.7C1641.14,1235.86 1641.13,1251.02 1640.98,1266.17L1641.14,1273.66C1641.46,1301.16 1642.32,1332.18 1641.19,1359.55L1641.2,1366.37C1641.65,1381.16 1641.59,1395.95 1641.04,1410.74L1641.16,1418.09L1641.01,1437.63L1641.07,1445.53L1641.33,1449.87C1641.52,1487.25 1641.52,1524.63 1641.31,1562L404.102,1561.99L403.972,1356.1L403.931,1347.83C404.626,1325.92 404.083,1299.18 403.776,1277.1L403.755,1269.07C404.863,1259.23 402.464,1229.52 403.413,1224.85C404.504,1218.23 404.164,1187.8 404.046,1179.06C403.673,1151.49 404.756,1122.2 403.813,1094.83L403.789,1087.64C404.804,1075.84 404.189,1046.06 403.753,1033.64C403.325,1030.97 403.612,1028.58 403.768,1025.88C404.489,1017.39 404.392,986.989 403.822,978.52C403.649,976.293 403.692,972.914 403.655,970.587C404.633,962.121 403.846,941.103 403.669,931.964C403.459,929.873 403.499,926.12 403.46,923.885C403.526,902.064 404.759,864.631 403.018,843.901L403.134,835.923C404.945,831.068 404.164,783.457 403.72,775.406C403.156,772.2 403.069,772.26 403.478,769.073C407.717,763.168 414.867,763.192 421.127,760.621C468.123,741.322 512.335,715.975 558.632,695.096C564.424,692.484 576.635,678.473 581.793,673.417C594.394,661.063 605.078,651.452 620.341,642.031C621.918,624.464 626.854,621.837 640.009,610.792C650.95,564.745 673.679,584.161 701.612,603.319Z" style="fill:rgb(13,13,10);fill-rule:nonzero;"/>
            </g>
            <g transform="matrix(0.5,0,0,0.5,-201.509,-201.007415)">
                <path d="M1030.69,1308.64C1058.04,1303.67 1080.94,1294.81 1107.57,1287.83C1114.88,1285.91 1124.91,1287.01 1132.49,1286.07C1134.33,1285.9 1137.55,1280.53 1138.52,1278.99C1139.14,1287.47 1138.26,1302.5 1141.72,1308.55C1147.58,1311.84 1150.98,1304.72 1153.8,1300.41C1157.37,1311.15 1162.21,1326.53 1170.76,1334.18L1173.33,1334.79C1175.72,1332.97 1175.67,1333.41 1176.2,1329.48C1176.33,1328.45 1176.45,1327.42 1176.56,1326.39L1178.03,1325.4C1183.65,1328.37 1190.95,1337.95 1199.62,1343.35C1194.11,1366.48 1186.27,1425.34 1169.27,1438.8C1148.18,1440.76 1146.99,1440.49 1134.65,1457.87C1130.4,1458.61 1124.92,1462.33 1123.21,1466.11C1106.68,1501.66 1178.45,1501.21 1196.62,1497.69C1225.28,1492.56 1254.13,1477.65 1283.57,1477.06C1355.87,1475.59 1427.77,1480.24 1500.17,1475.08C1525.97,1473.25 1541.25,1463.38 1564.3,1459.79C1591.16,1455.6 1614.03,1459.49 1641.33,1449.87C1641.52,1487.25 1641.52,1524.63 1641.31,1562L404.102,1561.99L403.972,1356.1C437.291,1355.33 471.839,1352.25 505.133,1349.62C499.931,1361.36 486.342,1386.95 491.006,1398.62C493.3,1404.36 498.709,1406.45 504.025,1409.14C496.972,1425.5 487.156,1439.61 480.307,1456.13C477.784,1464.19 474.939,1469.87 476.591,1477.93C479.198,1481.32 477.978,1480.22 482.393,1481.79C495.476,1481.47 510.147,1482.15 523.474,1482.12C531.694,1482.1 549.285,1481.48 556.297,1482.29C561.865,1483.09 566.402,1477.85 570.496,1474.38L578.963,1482.37C635.127,1492.56 691.424,1501.99 747.841,1510.66C780.691,1515.5 820.14,1522.22 853.221,1521C880.514,1519.99 902.417,1504.71 919.979,1484.74C950.033,1485.64 983.832,1488.71 1013.56,1484.48C1037.22,1481.11 1049.5,1470.25 1063,1451.64C1097.97,1392.84 1067.25,1357.1 1030.69,1308.64Z" style="fill:rgb(190,172,134);fill-rule:nonzero;"/>
            </g>
            <g transform="matrix(0.5,0,0,0.5,-201.509,-201.007415)">
                <path d="M919.979,1484.74C950.033,1485.64 983.832,1488.71 1013.56,1484.48C1037.22,1481.11 1049.5,1470.25 1063,1451.64C1068.09,1455.04 1085.47,1467.67 1075.95,1475.22C1040.99,1503.41 983.676,1497.29 942.103,1507.9C913.458,1515.2 898.132,1528.83 864.923,1531.27C760.662,1538.92 653.51,1514.47 550.576,1500.89C539.605,1499.46 528.573,1498.53 517.517,1498.11C497.479,1497.4 477.421,1499.82 460.979,1487.98C459.439,1484.72 457.742,1481.32 456.479,1477.97C459.377,1469.61 461.84,1463.84 470.492,1459.55C473.6,1457.99 476.9,1456.84 480.307,1456.13C477.784,1464.19 474.939,1469.87 476.591,1477.93C479.198,1481.32 477.978,1480.22 482.393,1481.79C495.476,1481.47 510.147,1482.15 523.474,1482.12C531.694,1482.1 549.285,1481.48 556.297,1482.29C561.865,1483.09 566.402,1477.85 570.496,1474.38L578.963,1482.37C635.127,1492.56 691.424,1501.99 747.841,1510.66C780.691,1515.5 820.14,1522.22 853.221,1521C880.514,1519.99 902.417,1504.71 919.979,1484.74Z" style="fill:rgb(144,128,95);fill-rule:nonzero;"/>
            </g>
            <g transform="matrix(0.5,0,0,0.5,-201.509,-201.007415)">
                <path d="M1534.32,1484.41L1535.5,1484.29C1561.57,1481.96 1571.54,1514.87 1564.99,1517.35C1548.77,1523.49 1505.34,1521.6 1486.11,1521.48C1477.15,1521.62 1457.69,1524.06 1452.3,1516.59C1451.45,1487.79 1513.68,1486.52 1534.32,1484.41Z" style="fill:rgb(13,13,10);fill-rule:nonzero;"/>
            </g>
            <g transform="matrix(0.5,0,0,0.5,-201.509,-201.007415)">
                <path d="M1533.24,1492.41C1550.88,1490.8 1553.21,1497.09 1559.93,1512.41C1542.81,1514.22 1506.28,1513.88 1488.5,1513.89C1478.31,1513.9 1470.48,1513.76 1460.22,1512.98C1477.45,1495.79 1489.47,1496.64 1512.49,1494.49C1519.27,1493.85 1526.43,1493.1 1533.24,1492.41Z" style="fill:rgb(144,128,95);fill-rule:nonzero;"/>
            </g>
            <g transform="matrix(0.5,0,0,0.5,-201.509,-201.007415)">
                <path d="M1082.7,1494.42C1099.26,1492.47 1104.03,1497.12 1113.49,1508.5C1114.22,1509.38 1121.85,1512.54 1123.56,1513.49C1125.94,1514.82 1127.59,1517.16 1128.05,1519.85C1131.01,1536.6 1077.89,1532.02 1065.84,1532.73C1052.51,1532.98 1035.08,1534.72 1022.55,1531.02C1016.6,1529.27 1020.47,1521.22 1022.93,1518.01C1038.18,1498.01 1059.97,1497.04 1082.7,1494.42Z" style="fill:rgb(13,13,10);fill-rule:nonzero;"/>
            </g>
            <g transform="matrix(0.5,0,0,0.5,-201.509,-201.007415)">
                <path d="M1083.91,1502.41C1101.79,1500.26 1101.22,1511.15 1115.59,1518.7C1118.23,1520.09 1120.85,1521.48 1123.48,1522.91C1109.17,1524.63 1083.85,1523.97 1067.25,1525C1053.6,1525.47 1039.93,1525.43 1026.29,1524.87C1045.47,1505.09 1057.37,1505.2 1083.91,1502.41Z" style="fill:rgb(144,128,95);fill-rule:nonzero;"/>
            </g>
            <g transform="matrix(0.5,0,0,0.5,-201.509,-201.007415)">
                <path d="M1121.18,1345.18C1132.34,1346.24 1144.39,1347.89 1155.24,1350.63C1165.93,1353.32 1176.01,1368.64 1172.12,1379.17C1168.1,1383.42 1150.46,1383.34 1143.69,1383.89C1130.19,1384.15 1109.6,1384.75 1096.3,1382.19C1093.43,1381.64 1091.32,1379.18 1089.98,1376.59C1088.52,1364.1 1110.54,1348.05 1121.18,1345.18Z" style="fill:rgb(13,13,10);fill-rule:nonzero;"/>
            </g>
            <g transform="matrix(0.5,0,0,0.5,-201.509,-201.007415)">
                <path d="M1120.35,1352.87C1127.92,1353.24 1146.7,1355.63 1153.64,1358.37C1161.67,1361.55 1163.39,1367.21 1166.19,1374.53C1159.22,1375.13 1152.24,1375.61 1145.25,1375.97C1130.76,1376.57 1110.37,1376.71 1096.2,1374.6C1103.01,1364.36 1110.31,1359.52 1120.35,1352.87Z" style="fill:rgb(144,128,95);fill-rule:nonzero;"/>
            </g>
            <g transform="matrix(0.5,0,0,0.5,-201.509,-201.007415)">
                <path d="M1278.08,1496.15C1296.52,1494.95 1309.15,1503.73 1313.96,1521.85C1317.63,1535.69 1270.4,1530.43 1262.25,1530.2C1251.58,1530.12 1228.47,1533.34 1223.18,1523.35C1222.72,1507 1248.46,1504.7 1259.94,1501.44C1266.04,1499.7 1271.93,1497.79 1278.08,1496.15Z" style="fill:rgb(13,13,10);fill-rule:nonzero;"/>
            </g>
            <g transform="matrix(0.5,0,0,0.5,-201.509,-201.007415)">
                <path d="M1277.82,1504.21C1295.67,1501.99 1298.82,1508.89 1307.17,1523.01C1292.96,1523.71 1274.29,1522.95 1259.75,1522.75C1252.64,1522.7 1238.47,1523.32 1232.86,1520.2L1232.81,1518.61C1237.98,1514.27 1268.65,1506.87 1277.82,1504.21Z" style="fill:rgb(144,128,95);fill-rule:nonzero;"/>
            </g>
            <g transform="matrix(0.5,0,0,0.5,-201.509,-201.007415)">
                <path d="M1350.3,1503.29C1378.05,1501.65 1396.66,1522.63 1361.24,1527.86C1350.62,1528.4 1333.8,1528.99 1329.81,1516.41C1331.07,1506.42 1341.82,1504.65 1350.3,1503.29Z" style="fill:rgb(144,128,95);fill-rule:nonzero;"/>
            </g>
            <g transform="matrix(0.5,0,0,0.5,-201.509,-201.007415)">
                <path d="M635.698,1525.44C643.976,1525.59 650.935,1524.51 655.519,1532.54C655.994,1543.6 645.524,1543.82 637.242,1544.79C629.349,1544.86 620.264,1544.75 616.604,1536.66C617.146,1526.13 627.547,1526.09 635.698,1525.44Z" style="fill:rgb(144,128,95);fill-rule:nonzero;"/>
            </g>
            <g transform="matrix(0.5,0,0,0.5,-201.509,-201.007415)">
                <path d="M444.983,1389.15C463.016,1388.1 474.74,1402.8 454.341,1410.27C434.431,1412.97 424.978,1399.14 444.983,1389.15Z" style="fill:rgb(13,13,10);fill-rule:nonzero;"/>
            </g>
            <g transform="matrix(0.5,0,0,0.5,-201.509,-201.007415)">
                <path d="M443.192,1397.32C448.21,1396.61 452.455,1395.36 456.244,1399.02L455.783,1401.29C451.458,1401.81 445.031,1403.52 442.111,1400.04L443.192,1397.32Z" style="fill:rgb(144,128,95);fill-rule:nonzero;"/>
            </g>
            <g transform="matrix(0.5,0,0,0.5,-201.509,-201.007415)">
                <path d="M1073.74,1319.13C1076.45,1319 1079.16,1318.9 1081.87,1318.84C1095.42,1318.6 1112.25,1329.35 1089.39,1335.76C1086.26,1336.03 1083.13,1336.21 1079.99,1336.28C1074.54,1336.37 1069.3,1334.26 1065.44,1330.42C1063.07,1323.54 1068.17,1321.77 1073.74,1319.13Z" style="fill:rgb(144,128,95);fill-rule:nonzero;"/>
            </g>
            <g transform="matrix(0.5,0,0,0.5,-201.509,-201.007415)">
                <path d="M462.946,1532.23C472.507,1531.57 476.372,1530.84 484.141,1536.96C485.61,1540.31 485.504,1538.66 484.68,1542.05C481.901,1545.67 480.362,1545.88 475.98,1547.76C474.748,1547.85 473.516,1547.93 472.282,1548C464.867,1548.4 460.658,1547.94 454.791,1542.68C452.306,1535.83 457.344,1534.53 462.946,1532.23Z" style="fill:rgb(144,128,95);fill-rule:nonzero;"/>
            </g>
            <g transform="matrix(0.5,0,0,0.5,-201.509,-201.007415)">
                <path d="M545.529,1531.24C554.24,1530.6 557.761,1530.61 563.947,1536.93C564.953,1540.46 565.054,1538.79 563.745,1542.13C560.627,1545.1 559.684,1544.97 555.276,1545.96L554.951,1545.97C548.573,1546.1 536.394,1545.55 538.463,1536.1C541.267,1532.94 541.532,1532.93 545.529,1531.24Z" style="fill:rgb(144,128,95);fill-rule:nonzero;"/>
            </g>
            <g transform="matrix(0.5,0,0,0.5,-201.509,-201.007415)">
                <path d="M1477.61,581.067C1523.53,611.893 1564.71,637.412 1614.84,661.254C1620.04,663.727 1636.25,672.069 1641.01,672.719C1641.14,718.211 1642.52,770.888 1641.13,815.883C1615.76,817.267 1597.65,821.824 1579.57,840.003C1574.05,845.55 1564.99,852.653 1557.79,855.448C1544.76,860.505 1529.12,853.19 1515,857.458C1498.04,862.584 1490.64,877.783 1476.15,885.818C1465.7,891.609 1452.28,888.184 1441.68,889.055C1420.83,890.768 1399.44,910.888 1383.37,923.947L1256.17,924.062C1244.6,900.069 1242.91,882.84 1215.04,873.479C1193.12,866.115 1161.04,864.572 1138.7,872.325C1133.73,874.779 1129.7,879.252 1125.07,882.197C1121.69,884.347 1116,884.436 1113.02,886.719C1106.71,891.554 1105.64,902.435 1104.37,909.622C1096.94,913.088 1059.1,922.757 1050.56,923.33C1031.4,924.617 1005.51,924.033 985.576,924.022L859.637,924.026C868.787,917.038 878.278,911.147 884.959,901.695C890.617,893.691 887.784,880.252 892.99,874.829C905.556,871.887 921.398,865.335 935.834,861.757C929.297,869.097 917.657,876.327 909.299,884.348C945.937,883.338 992.388,863.092 1027.94,852.212C1042.45,847.769 1055.79,840.882 1071.16,837.887C1091.48,833.93 1081.89,844.682 1089.45,849.868C1097.04,849.023 1120.67,835.849 1128.58,832.249C1172.43,812.29 1215.62,789.345 1257.8,765.979C1273.46,757.347 1289.06,748.594 1304.59,739.722C1315.71,733.373 1329.83,724.778 1341.46,719.98L1343.1,719.313C1336.66,728.537 1330.02,734.96 1322.21,742.849C1291.95,773.423 1260.28,801.753 1227,828.932C1225,830.564 1225.35,831.38 1225.49,833.463L1227.16,834.593C1239.26,835.024 1282.8,819.561 1296.11,814.407C1333.9,799.773 1383.7,775.992 1415.6,750.567C1430.85,738.416 1452.1,711.599 1466.86,697.485C1473.41,691.227 1494.17,672.779 1497.27,665.919C1491.94,655.264 1474.76,660.618 1466.77,653.022C1471.38,641.771 1467.1,630.146 1469.65,623.947C1479.12,600.964 1481.44,607.018 1477.61,581.067Z" style="fill:rgb(130,142,94);fill-rule:nonzero;"/>
            </g>
            <g transform="matrix(0.5,0,0,0.5,-201.509,-201.007415)">
                <path d="M1259.29,1066.55C1272.69,1061.73 1281.68,1056.3 1293.07,1047.54C1299.31,1054.23 1314.31,1068.24 1318.42,1073.42C1327.06,1084.3 1328.22,1097.76 1340.54,1109.51C1357.6,1126 1377.15,1138.62 1394.89,1154.42C1454.79,1207.77 1525.33,1279.59 1520.94,1365.91C1520.65,1371.5 1520.02,1376.6 1519.43,1382.14C1518.57,1390.13 1516.1,1400.49 1522.61,1406.83C1532.43,1416.4 1547.36,1419.51 1560.72,1418.87C1597.6,1415.62 1604.43,1407.93 1641.16,1418.09L1641.01,1437.63C1605.2,1429.31 1580.68,1436.63 1545.66,1439.82C1534.65,1440.82 1518.67,1438.61 1507.71,1437.02C1505.82,1433.22 1503.23,1426.64 1499.45,1425.13C1496.11,1426.07 1497.45,1425.17 1495.33,1428C1494.36,1435.83 1509.75,1446.8 1501.52,1452.79C1494.23,1458.1 1468.05,1456.85 1458.13,1456.89C1458.68,1454.29 1459.26,1450.43 1458.45,1447.88C1452.51,1429.08 1388.73,1418.21 1373.83,1384C1369.19,1373.34 1369.65,1361.12 1374.26,1350.54C1384.79,1326.38 1416.92,1314.09 1442.04,1318.13C1448.73,1319.2 1462.98,1325.64 1468.74,1323.39C1471.21,1315.5 1449.11,1302.72 1443.08,1300.45C1443.07,1299.1 1443.41,1295.97 1442.46,1295.11C1436.02,1289.27 1424.85,1290.68 1417.02,1290.28C1391.52,1289 1358.1,1303.74 1345.38,1326.72C1346.08,1329.79 1346.46,1329.68 1348.42,1332.33C1348.29,1333.3 1348.24,1334.37 1347.89,1335.22C1342.59,1331.55 1334.6,1331.7 1328.15,1326.47C1321.57,1321.14 1320.63,1319.69 1316.44,1312.73C1309.71,1309.06 1309.1,1308.2 1302.01,1311.27C1301.21,1307.99 1300.06,1307.29 1297.83,1304.46L1298.48,1303.64C1285.43,1284.83 1276.9,1283.21 1273.66,1256.82C1268.52,1262.28 1267.52,1302.38 1265.12,1312.07C1258.29,1339.56 1248.39,1363.56 1234.24,1387.92C1223.06,1407.18 1217.88,1439.5 1187.59,1427.67C1196.23,1403.32 1215.12,1318.97 1208.91,1298.4C1195.94,1255.42 1162.84,1218.76 1194.04,1171.34C1196.54,1167.54 1206.68,1154 1208.1,1150.53C1207.88,1147.82 1207.82,1148.02 1206.06,1145.89L1203.96,1145.74C1199.62,1148.63 1197.16,1153.45 1193.94,1157.97C1190.82,1150.27 1190.55,1143.34 1184.18,1137.87C1176.11,1137.47 1169.45,1155.2 1162.26,1156.94L1160.52,1155.56C1153.94,1141.47 1161.7,1119.45 1161.93,1102.78L1161.94,1101.39C1180.54,1108.71 1203.46,1109.44 1222.42,1101.94C1241.4,1094.42 1242.56,1076.98 1247.84,1072.59L1252.07,1075.7C1256.69,1074.96 1257.49,1070.7 1259.29,1066.55Z" style="fill:rgb(146,105,67);fill-rule:nonzero;"/>
            </g>
            <g transform="matrix(0.5,0,0,0.5,-201.509,-201.007415)">
                <path d="M1273.66,1256.82C1274.61,1250.92 1276.74,1236.22 1282.57,1233.24C1285.35,1235.31 1284.48,1234.67 1285.81,1238.58C1281.9,1254.23 1278.41,1258.52 1286.99,1275.35C1291.48,1284.16 1303.9,1294.08 1302.44,1301.8C1300.12,1303.37 1301.03,1303.14 1298.48,1303.64C1285.43,1284.83 1276.9,1283.21 1273.66,1256.82Z" style="fill:rgb(13,13,10);fill-rule:nonzero;"/>
            </g>
            <g transform="matrix(0.5,0,0,0.5,-201.509,-201.007415)">
                <path d="M1259.92,931.946L1641.08,932.098C1641.7,974.318 1641.83,1016.54 1641.47,1058.76C1641.41,1085.41 1642.09,1116.11 1641.11,1142.49C1622.2,1139.1 1606.2,1137.47 1588.16,1145.1C1583.93,1146.14 1571.55,1153.1 1568.09,1153.23C1538.35,1154.28 1530.42,1160.49 1513.33,1186.65C1489.69,1188.43 1481.17,1197.19 1463.64,1211.49C1441.99,1186.96 1420.04,1164.54 1394.75,1143.73C1377.79,1129.77 1358.92,1116.87 1343.56,1101.13C1335.14,1092.51 1331.74,1077 1324.43,1068.12C1317.45,1059.65 1306.21,1053.59 1300.73,1043.3C1304.14,1015.35 1288.9,1020.04 1283.97,1006.59C1275.2,982.694 1268.47,956.326 1259.92,931.946Z" style="fill:rgb(116,166,140);fill-rule:nonzero;"/>
            </g>
            <g transform="matrix(0.5,0,0,0.5,-201.509,-201.007415)">
                <path d="M1536.33,963.531C1542.53,963.204 1551.47,961.605 1555.22,967.772L1554.4,969.485C1551.58,970.945 1548.56,971.958 1545.35,971.963C1523.34,971.997 1501.25,971.927 1479.24,971.937L1337.81,972.004C1331.06,972.133 1324,973.292 1319.26,967.489L1320.47,965.729C1329.78,961.318 1509.91,963.855 1536.33,963.531Z" style="fill:rgb(13,13,10);fill-rule:nonzero;"/>
            </g>
            <g transform="matrix(0.5,0,0,0.5,-201.509,-201.007415)">
                <path d="M1356.91,1064C1431.28,1062.47 1506.49,1065.35 1580.95,1063.59C1584.72,1063.5 1591.17,1063.23 1594.05,1065.53C1594.96,1069.47 1595.05,1067.57 1593.75,1071.42C1576.05,1072.49 1551.54,1071.75 1533.19,1071.75L1417.9,1071.76C1398.26,1071.78 1378.62,1071.83 1358.98,1071.82C1358.26,1071.38 1357.54,1070.95 1356.82,1070.52C1355.68,1067.64 1356.18,1067.05 1356.91,1064Z" style="fill:rgb(13,13,10);fill-rule:nonzero;"/>
            </g>
            <g transform="matrix(0.5,0,0,0.5,-201.509,-201.007415)">
                <path d="M1344.26,1012.1C1355.61,1012.06 1430.7,1010.77 1435.29,1013.2C1437.03,1016.45 1436.5,1015.37 1435.69,1019.9C1424.62,1019.92 1349.95,1021.21 1344.35,1018.68C1342.76,1015.49 1343.26,1016.51 1344.26,1012.1Z" style="fill:rgb(13,13,10);fill-rule:nonzero;"/>
            </g>
            <g transform="matrix(0.5,0,0,0.5,-201.509,-201.007415)">
                <path d="M1403.07,1120.18C1410.74,1119.65 1483.86,1118.93 1488.43,1120.79C1490.54,1123.99 1489.91,1122.86 1489.72,1127.45C1480.79,1128.32 1411.12,1128.32 1404.44,1126.73C1402.34,1124.08 1403.06,1124.52 1403.07,1120.18Z" style="fill:rgb(13,13,10);fill-rule:nonzero;"/>
            </g>
            <g transform="matrix(0.5,0,0,0.5,-201.509,-201.007415)">
                <path d="M1592.56,1002.47C1603.21,1002.43 1612.79,1002.35 1623.44,1003.04C1625.66,1004.95 1625.18,1003.77 1625.4,1006.43C1620.12,1010.69 1563.68,1009.21 1552.76,1009.25C1544.92,1009.2 1524.62,1009.96 1518.4,1006.87L1518.2,1004.71C1522.07,1001.19 1581.35,1002.58 1592.56,1002.47Z" style="fill:rgb(156,198,175);fill-rule:nonzero;"/>
            </g>
            <g transform="matrix(0.5,0,0,0.5,-201.509,-201.007415)">
                <path d="M1588.57,1107.47C1595.89,1107.31 1620.58,1105.04 1624.37,1110.74L1623.59,1113.35C1619.54,1115.33 1616.16,1114.92 1611.57,1115C1603.55,1114.95 1576.54,1117.44 1572.76,1110.91L1573.6,1109.02C1578.16,1107.1 1583.47,1107.53 1588.57,1107.47Z" style="fill:rgb(156,198,175);fill-rule:nonzero;"/>
            </g>
            <g transform="matrix(0.5,0,0,0.5,-201.509,-201.007415)">
                <path d="M1489.91,1158.47C1496.04,1158.3 1502.75,1157.36 1507.49,1161.49L1507.1,1162.82C1500.17,1167.35 1493.91,1166.15 1485.5,1165.95C1477.21,1166.08 1472.99,1166.74 1465.39,1163.39L1465.29,1162.06C1471.33,1157.71 1482.36,1158.48 1489.91,1158.47Z" style="fill:rgb(156,198,175);fill-rule:nonzero;"/>
            </g>
            <g transform="matrix(0.5,0,0,0.5,-201.509,-201.007415)">
                <path d="M1063.95,800.757C1035.23,815.413 1004.88,828.531 975.487,841.814C968.125,845.14 960.279,848.334 953.346,852.431C951.764,855.398 952.028,853.893 952.272,857.05L954.281,858.222C963.172,858.249 979.243,849.133 988.179,845.336C1045.33,821.053 1099.07,791.036 1154.2,762.756C1194.57,743.475 1234.98,729.383 1271.36,702.428C1294.83,685.033 1314.19,664.941 1336.55,646.731C1345.95,639.082 1371.88,637.405 1385.16,629.848C1413.73,613.587 1437,588.125 1468.16,577.013C1469.8,583.81 1471.35,590.629 1472.8,597.467C1460.55,619.325 1460.1,620.564 1461.6,644.693C1456.33,654.927 1447.73,661.451 1439.29,669.026C1423.61,683.103 1426.19,688.527 1444.33,695.187C1422.32,721.07 1364.54,755.026 1336.9,777.223C1329.83,782.897 1318.36,789.958 1313.45,797.377C1313.36,800.783 1312.95,799.236 1314.82,802.16C1320.48,801.225 1353.61,774.951 1359.63,770.53C1373.75,760.144 1454.34,708.625 1452.59,693.762C1449.39,687.4 1443.56,686.232 1436.8,683.539C1447.13,672.342 1457.08,667.02 1466.77,653.022C1474.76,660.618 1491.94,655.264 1497.27,665.919C1494.17,672.779 1473.41,691.227 1466.86,697.485C1452.1,711.599 1430.85,738.416 1415.6,750.567C1383.7,775.992 1333.9,799.773 1296.11,814.407C1282.8,819.561 1239.26,835.024 1227.16,834.593L1225.49,833.463C1225.35,831.38 1225,830.564 1227,828.932C1260.28,801.753 1291.95,773.423 1322.21,742.849C1330.02,734.96 1336.66,728.537 1343.1,719.313L1341.46,719.98C1329.83,724.778 1315.71,733.373 1304.59,739.722C1289.06,748.594 1273.46,757.347 1257.8,765.979C1215.62,789.345 1172.43,812.29 1128.58,832.249C1120.67,835.849 1097.04,849.023 1089.45,849.868C1081.89,844.682 1091.48,833.93 1071.16,837.887C1055.79,840.882 1042.45,847.769 1027.94,852.212C992.388,863.092 945.937,883.338 909.299,884.348C917.657,876.327 929.297,869.097 935.834,861.757C921.398,865.335 905.556,871.887 892.99,874.829C893.577,868.513 892.257,866.034 890.193,860.213C890.937,858.081 893.9,848.572 893.184,846.677C882.674,818.88 876.384,795.346 840.473,811.156C834.8,803.247 831.158,802.382 821.63,801.736C817.054,785.381 815.161,778.506 807.404,763.066C819.471,758.516 820.292,756.885 826.291,745.9L837.494,742.225C838.774,739.298 839.339,737.947 841.086,735.179C851.22,730.848 853.961,727.508 860.562,718.996C873.947,726.682 880.382,727.566 885.589,711.129C950.852,759.107 994.903,767.893 1063.95,800.757Z" style="fill:rgb(159,177,128);fill-rule:nonzero;"/>
            </g>
            <g transform="matrix(0.5,0,0,0.5,-201.509,-201.007415)">
                <path d="M1517.34,1194.23C1539.05,1168.7 1532.44,1162.31 1569.95,1161.21C1575.76,1161.04 1597.03,1145.7 1609.9,1147.46C1613.11,1147.89 1641.81,1150.04 1641.36,1150.18C1641.85,1170.45 1641.34,1191.69 1641.13,1212.04L1641.02,1220.7C1641.14,1235.86 1641.13,1251.02 1640.98,1266.17L1641.14,1273.66C1641.46,1301.16 1642.32,1332.18 1641.19,1359.55L1641.2,1366.37C1641.65,1381.16 1641.59,1395.95 1641.04,1410.74C1599.13,1393.59 1552.8,1428.37 1525.82,1397.91C1526.25,1392.46 1526.95,1386.38 1527.62,1380.93C1535.71,1314.89 1508.23,1267.21 1468.39,1217.65C1488.55,1200.97 1490.77,1197.69 1517.34,1194.23Z" style="fill:rgb(190,172,134);fill-rule:nonzero;"/>
            </g>
            <g transform="matrix(0.5,0,0,0.5,-201.509,-201.007415)">
                <path d="M1608.39,1226.03C1621.55,1215.74 1625.31,1215.29 1641.02,1220.7C1641.14,1235.86 1641.13,1251.02 1640.98,1266.17C1609.28,1271.13 1582.23,1272.65 1550.44,1265.74C1556.63,1249.3 1559.13,1247.25 1575.58,1241.73C1583.44,1222.84 1589.29,1224.67 1608.39,1226.03Z" style="fill:rgb(144,128,95);fill-rule:nonzero;"/>
            </g>
            <g transform="matrix(0.5,0,0,0.5,-201.509,-201.007415)">
                <path d="M1605.81,1217.64C1606.56,1217.14 1607.32,1216.64 1608.08,1216.16C1620.34,1208.31 1627.43,1209 1641.13,1212.04L1641.02,1220.7C1625.31,1215.29 1621.55,1215.74 1608.39,1226.03C1589.29,1224.67 1583.44,1222.84 1575.58,1241.73C1559.13,1247.25 1556.63,1249.3 1550.44,1265.74C1582.23,1272.65 1609.28,1271.13 1640.98,1266.17L1641.14,1273.66C1605.96,1279.54 1578.45,1280.31 1542.91,1271.66C1544.2,1250.19 1550.56,1242.95 1570.04,1235.69C1578.06,1217.05 1587.1,1217.28 1605.81,1217.64Z" style="fill:rgb(13,13,10);fill-rule:nonzero;"/>
            </g>
            <g transform="matrix(0.5,0,0,0.5,-201.509,-201.007415)">
                <path d="M1575.62,1315.21C1584.99,1314.89 1604.97,1318.43 1598.01,1334.82C1596.45,1338.48 1588.65,1339.31 1584.62,1339.93C1576.48,1340.07 1562.57,1341.07 1558.27,1332.02C1557.25,1329.87 1557.33,1327.36 1558.47,1325.28C1561.48,1319.93 1569.93,1316.56 1575.62,1315.21Z" style="fill:rgb(13,13,10);fill-rule:nonzero;"/>
            </g>
            <g transform="matrix(0.5,0,0,0.5,-201.509,-201.007415)">
                <path d="M1574.16,1323.12C1575.73,1323.05 1577.29,1323 1578.86,1322.98C1583.16,1322.94 1593.07,1324.46 1592.57,1330C1590.29,1331.69 1589.09,1331.58 1586.25,1332.07C1579.71,1332.23 1572.84,1333.03 1566.98,1330.24L1566.57,1328.52C1568.46,1325.47 1570.89,1324.75 1574.16,1323.12Z" style="fill:rgb(144,128,95);fill-rule:nonzero;"/>
            </g>
            <g transform="matrix(0.5,0,0,0.5,-201.509,-201.007415)">
                <path d="M1549.86,1191.23C1552.85,1190.99 1555.84,1190.81 1558.83,1190.68C1565.95,1190.41 1578.4,1193.52 1577.78,1202.44C1574.81,1207.55 1570.22,1208.87 1564.87,1210.65C1556.66,1211.4 1532.74,1212.14 1535.77,1198.51C1539.73,1193.7 1543.9,1192.7 1549.86,1191.23Z" style="fill:rgb(144,128,95);fill-rule:nonzero;"/>
            </g>
            <g transform="matrix(0.5,0,0,0.5,-201.509,-201.007415)">
                <path d="M1523.74,1223.16C1532.58,1222.55 1536.13,1222.24 1543.48,1227.28C1545.27,1230.69 1545.1,1229 1544.43,1232.44C1541.77,1235.92 1541.63,1236 1537.72,1238.14C1530.76,1238.95 1515.21,1239.14 1516.78,1228.61C1519.06,1225.24 1519.97,1225.11 1523.74,1223.16Z" style="fill:rgb(144,128,95);fill-rule:nonzero;"/>
            </g>
            <g transform="matrix(0.5,0,0,0.5,-201.509,-201.007415)">
                <path d="M403.669,931.964C432.479,931.741 461.29,931.713 490.101,931.878C488.664,945.492 487.531,958.621 485.771,972.596C483.361,991.727 473.991,1018.99 479.253,1037.93C482.017,1047.87 494.032,1058.26 498.372,1069.84C493.872,1086.49 486.868,1099.05 492.865,1115.44C494.355,1119.51 498.243,1129.36 498.993,1132.7C495.753,1143.7 490.841,1153.39 487.809,1164.23C477.785,1164.04 449.37,1162.08 442.426,1167.21L442.549,1168.53C451.642,1173.86 475.699,1171.94 486.962,1171.73C486.759,1183.31 486.626,1190.79 495.593,1199.77C506.707,1210.91 509.218,1214.07 509.49,1229.8C509.669,1240.13 506.662,1253.44 510.716,1262.07C511.267,1263.25 511.15,1263.18 511.14,1264.42L510.152,1266.01C504.417,1265.41 499.016,1264.54 493.326,1263.65C479.518,1241.59 471.973,1237.09 446.029,1241.88C431.536,1228.65 426.046,1223.92 405.422,1224.75L403.413,1224.85C404.504,1218.23 404.164,1187.8 404.046,1179.06C403.673,1151.49 404.756,1122.2 403.813,1094.83L403.789,1087.64C404.804,1075.84 404.189,1046.06 403.753,1033.64C403.325,1030.97 403.612,1028.58 403.768,1025.88C404.489,1017.39 404.392,986.989 403.822,978.52C403.649,976.293 403.692,972.914 403.655,970.587C404.633,962.121 403.846,941.103 403.669,931.964Z" style="fill:rgb(116,166,140);fill-rule:nonzero;"/>
            </g>
            <g transform="matrix(0.5,0,0,0.5,-201.509,-201.007415)">
                <path d="M403.789,1087.64C412.187,1087.04 461.996,1086.31 467.933,1088.22C470.145,1090.48 469.546,1089.16 469.796,1092.31C467.697,1094.8 466.221,1095.01 462.16,1095.02C443.336,1095.09 422.499,1095.48 403.813,1094.83L403.789,1087.64Z" style="fill:rgb(13,13,10);fill-rule:nonzero;"/>
            </g>
            <g transform="matrix(0.5,0,0,0.5,-201.509,-201.007415)">
                <path d="M403.768,1025.88C413.245,1025.82 454.744,1024.65 461.097,1027.33L462.798,1029.59L462.384,1031.33C455.978,1035.11 412.975,1034.49 403.753,1033.64C403.325,1030.97 403.612,1028.58 403.768,1025.88Z" style="fill:rgb(13,13,10);fill-rule:nonzero;"/>
            </g>
            <g transform="matrix(0.5,0,0,0.5,-201.509,-201.007415)">
                <path d="M403.655,970.587C414.584,970.415 441.812,968.974 450.529,972.135L451.875,973.638C451.616,974.86 451.571,976.528 450.682,976.816C440.252,980.198 414.17,978.495 403.822,978.52C403.649,976.293 403.692,972.914 403.655,970.587Z" style="fill:rgb(13,13,10);fill-rule:nonzero;"/>
            </g>
            <g transform="matrix(0.5,0,0,0.5,-201.509,-201.007415)">
                <path d="M419.617,1149.19C428.193,1148.98 451.312,1147.56 457.968,1151.06C459.712,1154.48 459.243,1152.63 458.793,1156.91C449.235,1157.1 427.045,1158.7 419.768,1154.71C418.199,1151.53 418.525,1153.27 419.617,1149.19Z" style="fill:rgb(156,198,175);fill-rule:nonzero;"/>
            </g>
            <g transform="matrix(0.5,0,0,0.5,-201.509,-201.007415)">
                <path d="M1146.13,1060.35L1147.89,1064C1155.98,1080.56 1150.84,1087.97 1161.94,1101.39L1161.93,1102.78C1161.7,1119.45 1153.94,1141.47 1160.52,1155.56L1162.26,1156.94C1169.45,1155.2 1176.11,1137.47 1184.18,1137.87C1190.55,1143.34 1190.82,1150.27 1193.94,1157.97C1181.25,1176.18 1170.26,1198.9 1173.73,1221.82C1174.82,1228.98 1183.7,1259.01 1186.44,1264.74C1200.26,1293.62 1205.48,1302.13 1200.7,1334.9C1192.16,1328.15 1186.44,1322.74 1179.61,1314.18C1176.07,1316.35 1172.71,1318.31 1169.37,1320.79L1168.76,1319.59C1163.67,1309.51 1162.72,1295.08 1156.78,1290.45C1151.07,1289.96 1150.01,1293.54 1147.02,1297.98C1146.45,1288.63 1146.13,1273.81 1140.11,1266.31L1137.72,1265.38C1132.83,1267.59 1132.51,1269.77 1130.47,1275.01C1127.57,1264.62 1127.31,1248.02 1121.91,1244.07C1117.55,1244.72 1116.73,1246.51 1113.66,1250.21C1109.48,1231.63 1112.58,1219.79 1115.18,1201.5C1115.45,1199.63 1113.3,1198.45 1112.03,1197.51C1107.11,1198.03 1107.05,1202.64 1105.77,1207.12C1102.98,1203.18 1102.73,1202.41 1101.23,1197.8C1103.58,1189.49 1110.43,1174 1109.94,1167.05C1107.77,1164.08 1109.17,1165.3 1105.08,1163.97C1102.16,1164.17 1102.26,1164.04 1099.43,1163.08C1103.37,1134.32 1112,1131.8 1126.66,1108.92C1134.77,1096.27 1142.54,1075.06 1146.13,1060.35Z" style="fill:rgb(190,172,134);fill-rule:nonzero;"/>
            </g>
            <g transform="matrix(0.5,0,0,0.5,-201.509,-201.007415)">
                <path d="M1641,823.682C1641.3,857.126 1641.32,890.572 1641.08,924.017C1560.08,923.987 1477.22,924.869 1396.41,923.698C1405.6,916.466 1423.69,901.352 1434.34,898.369C1449.72,894.058 1462.76,901.984 1480.85,892.543C1492.02,887.535 1505.68,865.917 1517.93,864.806C1544.73,862.373 1560.45,871.915 1582.57,848.148C1598.23,831.312 1617.52,824.921 1641,823.682Z" style="fill:rgb(130,142,94);fill-rule:nonzero;"/>
            </g>
            <g transform="matrix(0.5,0,0,0.5,-201.509,-201.007415)">
                <path d="M403.72,775.406C455.225,759.08 502.675,729.3 551.395,707.004C542.415,720.192 533.513,733.354 526.827,747.901C510.175,784.128 501.03,833.475 496.37,873.061C484.43,866.808 477.217,859.218 462.799,859.273C457.316,859.295 451.338,860.123 446.122,860.013L445.102,859.169C429.358,845.974 427.276,836.216 403.134,835.923C404.945,831.068 404.164,783.457 403.72,775.406Z" style="fill:rgb(159,177,128);fill-rule:nonzero;"/>
            </g>
            <g transform="matrix(0.5,0,0,0.5,-201.509,-201.007415)">
                <path d="M1257.12,1426.23C1263.31,1426.07 1282.69,1426.97 1286.49,1424.15C1285.04,1422.21 1285.3,1423.04 1284.84,1420.84C1287.35,1419.22 1290.15,1419.59 1293.27,1419.52C1269.68,1450.71 1298.57,1447.19 1319.92,1447C1319.18,1451.36 1317.75,1458.21 1320.81,1462.2C1322.26,1464.08 1324.31,1464.97 1326.63,1465.1C1343.71,1466.08 1362.37,1465.48 1379.49,1465.41C1417.5,1465.25 1455.34,1464.73 1493.32,1463.48C1499.2,1463.29 1502.41,1462.77 1506.57,1458.47C1510.65,1454.27 1509.58,1446.2 1513.72,1445.86C1521.58,1445.19 1531.07,1448.11 1538.89,1447.68C1577.26,1445.54 1602.58,1436.34 1641.07,1445.53L1641.33,1449.87C1614.03,1459.49 1591.16,1455.6 1564.3,1459.79C1541.25,1463.38 1525.97,1473.25 1500.17,1475.08C1427.77,1480.24 1355.87,1475.59 1283.57,1477.06C1254.13,1477.65 1225.28,1492.56 1196.62,1497.69C1178.45,1501.21 1106.68,1501.66 1123.21,1466.11C1124.92,1462.33 1130.4,1458.61 1134.65,1457.87C1121.69,1490.59 1145.58,1484.27 1168.05,1485.25C1212.13,1487.17 1215.65,1484.79 1229.7,1444.44C1232.52,1447.51 1237.24,1453.05 1241.63,1452.42C1244.35,1449.6 1242.76,1445.5 1244.77,1442.74C1249.21,1436.66 1256.41,1443.94 1259.94,1436.25C1260.03,1431.93 1258.91,1430.32 1257.12,1426.23Z" style="fill:rgb(144,128,95);fill-rule:nonzero;"/>
            </g>
            <g transform="matrix(0.5,0,0,0.5,-201.509,-201.007415)">
                <path d="M553.336,1336.06C568.836,1347.89 578.562,1355.17 595.543,1365.14C569.351,1393.81 552.928,1428.76 566.994,1467.56L566.165,1468.31C561.984,1472.08 557.257,1474.31 554.844,1478.06C555.251,1480.33 555.218,1480.25 556.297,1482.29C549.285,1481.48 531.694,1482.1 523.474,1482.12C510.147,1482.15 495.476,1481.47 482.393,1481.79C487.366,1449.22 497.793,1443.32 509.503,1415.8C519.796,1391.62 522.82,1358.42 547.371,1340.16C549.318,1338.73 551.307,1337.36 553.336,1336.06Z" style="fill:rgb(91,89,78);fill-rule:nonzero;"/>
            </g>
            <g transform="matrix(0.5,0,0,0.5,-201.509,-201.007415)">
                <path d="M1458.13,1456.89C1442.98,1456.94 1355.6,1459.84 1346.25,1457.3C1346.17,1452 1353.46,1447.62 1354.35,1441.24L1353.27,1439.84C1342.24,1437.4 1341.43,1452.24 1337.07,1457.98C1333.36,1458.83 1329.78,1458.81 1326.77,1456.22C1322.78,1443.96 1344.52,1429.18 1355.49,1429.05C1365.29,1428.92 1407.24,1445.94 1409.75,1432.34C1383.19,1423.18 1358.43,1410.52 1347.85,1381.91C1341.98,1366.02 1348.64,1349.99 1357.01,1336.59C1359.57,1332.48 1358.83,1330.78 1357.46,1326.5L1357.16,1325.6C1366.86,1307.01 1399.79,1296.24 1419.27,1298.79C1426.1,1299.68 1436.79,1301.34 1443.08,1300.45C1449.11,1302.72 1471.21,1315.5 1468.74,1323.39C1462.98,1325.64 1448.73,1319.2 1442.04,1318.13C1416.92,1314.09 1384.79,1326.38 1374.26,1350.54C1369.65,1361.12 1369.19,1373.34 1373.83,1384C1388.73,1418.21 1452.51,1429.08 1458.45,1447.88C1459.26,1450.43 1458.68,1454.29 1458.13,1456.89Z" style="fill:rgb(190,146,97);fill-rule:nonzero;"/>
            </g>
            <g transform="matrix(0.5,0,0,0.5,-201.509,-201.007415)">
                <path d="M1187.59,1427.67C1217.88,1439.5 1223.06,1407.18 1234.24,1387.92C1248.39,1363.56 1258.29,1339.56 1265.12,1312.07C1267.52,1302.38 1268.52,1262.28 1273.66,1256.82C1276.9,1283.21 1285.43,1284.83 1298.48,1303.64L1297.83,1304.46C1294.91,1306.32 1293.97,1306.58 1292.61,1309.78C1292.75,1312.9 1294.29,1314.3 1296.19,1316.86C1295.85,1329.61 1278.36,1316.37 1289.81,1349.46C1265.85,1366.38 1279.16,1365.26 1276.52,1382.34C1272.69,1383.64 1272.75,1380.57 1267.97,1382.32C1265.07,1387.68 1267.45,1392.48 1269.31,1398.57L1269.78,1400.08C1265.58,1398.62 1262.44,1396.98 1258.16,1397.66C1252.18,1401.91 1257.87,1408.64 1260.85,1413.56C1255.24,1411.14 1249.52,1407.27 1245.36,1413.5C1244.61,1422.12 1248.68,1427.23 1253.02,1434.68C1248.7,1434 1244.39,1433.28 1240.09,1432.52C1237.15,1436.78 1237.83,1437.44 1234.04,1438.49C1225.3,1435.09 1225.69,1436.74 1220.75,1445.55C1216.59,1452.97 1214.41,1462.03 1211.06,1469.85C1207.35,1480.11 1180.32,1477.75 1170.26,1477.61C1172.99,1473.44 1179.73,1465.57 1174.05,1461.61C1166.78,1463.07 1165.5,1471.34 1163.76,1477.51C1159.65,1477.48 1154.91,1477.58 1150.86,1477.22C1152.96,1471.68 1158.85,1461.41 1159.53,1458.69C1157.82,1454.99 1159.12,1456 1156.27,1454.31C1149.38,1456.41 1146.94,1472.79 1140.97,1477.56L1139.56,1477.18C1137.25,1472.55 1138.42,1470.42 1139.72,1466C1144.48,1449.86 1155.68,1447.91 1170.34,1445.39C1178.86,1443.93 1185.19,1436 1187.59,1427.67Z" style="fill:rgb(190,146,97);fill-rule:nonzero;"/>
            </g>
            <g transform="matrix(0.5,0,0,0.5,-201.509,-201.007415)">
                <path d="M403.018,843.901C429.646,845.631 421.786,854.028 442.18,866.051C449.562,870.404 462.156,865.621 469.601,867.582C477.516,869.666 488.223,876.908 495.581,881.3C493.773,894.612 491.234,910.655 490.82,923.953C461.7,924.087 432.58,924.064 403.46,923.885C403.526,902.064 404.759,864.631 403.018,843.901Z" style="fill:rgb(130,142,94);fill-rule:nonzero;"/>
            </g>
            <g transform="matrix(0.5,0,0,0.5,-201.509,-201.007415)">
                <path d="M403.755,1269.07C404.863,1259.23 402.464,1229.52 403.413,1224.85C403.746,1228.67 403.135,1229.5 405.102,1232C408.324,1232.89 409.205,1232.93 412.684,1232.79C427.388,1232.17 433.52,1242.04 442.893,1249.56C473.481,1247.4 471.966,1245.92 490.185,1271.6C503.259,1272.5 509.013,1273.66 521.467,1278.44C529.72,1303.78 532.143,1307.33 547.706,1328.76C527.864,1323.04 524.283,1321.99 511.994,1339.17C499.703,1305.43 490.131,1294.69 452.507,1293.05C438.215,1272.9 428.01,1268.88 403.755,1269.07Z" style="fill:rgb(190,172,134);fill-rule:nonzero;"/>
            </g>
            <g transform="matrix(0.5,0,0,0.5,-201.509,-201.007415)">
                <path d="M403.776,1277.1C423.229,1276.97 431.513,1278.82 444.529,1294.41C438.712,1295.91 427.496,1297.69 424.54,1302.62C424.833,1305.53 424.303,1304.28 426.148,1306.52C432.009,1307.64 440.597,1302.7 446.468,1301.82C479.572,1296.89 495.662,1311.47 504.312,1341.81C471.317,1346.26 437.007,1345.93 403.931,1347.83C404.626,1325.92 404.083,1299.18 403.776,1277.1Z" style="fill:rgb(144,128,95);fill-rule:nonzero;"/>
            </g>
            <g transform="matrix(0.5,0,0,0.5,-201.509,-201.007415)">
                <path d="M1025.61,1118.86C1039.51,1122.92 1062.63,1143.38 1073.92,1153.39C1078.62,1157.55 1083.58,1163.79 1088.94,1166.98L1092.04,1164.71C1097.1,1164.75 1095.9,1165.48 1099.43,1163.08C1102.26,1164.04 1102.16,1164.17 1105.08,1163.97C1109.17,1165.3 1107.77,1164.08 1109.94,1167.05C1110.43,1174 1103.58,1189.49 1101.23,1197.8C1102.73,1202.41 1102.98,1203.18 1105.77,1207.12C1103.66,1222.82 1109.82,1222.59 1092.55,1229.3C1088.72,1220.57 1087,1214.22 1076.3,1214.84C1070.21,1206.33 1073.84,1200.88 1064.93,1192.36C1061.17,1191.2 1061.73,1191.89 1057.05,1193.56C1051.1,1187.79 1054.12,1166.11 1036.98,1168.07C1032.03,1164.69 1034.15,1158.43 1028.84,1152.97C1025.23,1152.26 1026.07,1152.65 1021.98,1154.36C1016.82,1145.73 1027.45,1137.41 1027.89,1129.13C1027.98,1127.38 1026.13,1120.79 1025.61,1118.86Z" style="fill:rgb(190,146,97);fill-rule:nonzero;"/>
            </g>
            <g transform="matrix(0.5,0,0,0.5,-201.509,-201.007415)">
                <path d="M1105.08,1163.97C1109.17,1165.3 1107.77,1164.08 1109.94,1167.05C1110.43,1174 1103.58,1189.49 1101.23,1197.8C1098.64,1199.34 1097.71,1199.25 1095.44,1197.92C1092.39,1191.21 1101.01,1169.26 1105.08,1163.97Z" style="fill:rgb(13,13,10);fill-rule:nonzero;"/>
            </g>
            <g transform="matrix(0.5,0,0,0.5,-201.509,-201.007415)">
                <path d="M1008.75,1081.92C1051.88,1097.26 1061.86,1114.96 1099.13,1134.56C1094.84,1145.73 1091.92,1152.55 1092.04,1164.71L1088.94,1166.98C1083.58,1163.79 1078.62,1157.55 1073.92,1153.39C1062.63,1143.38 1039.51,1122.92 1025.61,1118.86C1020.16,1108.28 1013.65,1093.06 1008.75,1081.92Z" style="fill:rgb(146,105,67);fill-rule:nonzero;"/>
            </g>
            <g transform="matrix(0.5,0,0,0.5,-201.509,-201.007415)">
                <path d="M1302.01,1311.27C1309.1,1308.2 1309.71,1309.06 1316.44,1312.73C1320.63,1319.69 1321.57,1321.14 1328.15,1326.47C1334.6,1331.7 1342.59,1331.55 1347.89,1335.22C1337.66,1354.44 1336.19,1363.64 1339.93,1385.18C1319.48,1367.63 1314.33,1365.5 1288.58,1360.15C1307.77,1348.74 1288.6,1344.97 1294.35,1331.09C1297.99,1322.32 1310.62,1329.59 1302.01,1311.27Z" style="fill:rgb(190,146,97);fill-rule:nonzero;"/>
            </g>
            <g transform="matrix(0.5,0,0,0.5,-201.509,-201.007415)">
                <path d="M1257.12,1426.23C1255.3,1423.24 1254.95,1422.97 1253.99,1419.52L1254.93,1419C1259.84,1420.74 1261.58,1422.55 1264.95,1418.43C1265.74,1414.01 1264.59,1410.25 1263.72,1405.77C1267.43,1406.02 1270.51,1406.49 1274.13,1405.7C1280.87,1399.71 1273.75,1396.93 1275.96,1391.02C1278.67,1391.05 1280.87,1391 1283.55,1390.89C1288.8,1385.74 1280.59,1377.36 1283.97,1369.45C1288.16,1366.61 1296.71,1369.05 1302.18,1369.97C1302.47,1388.21 1304.43,1395.12 1315.11,1410.11C1304.68,1412.48 1302,1412.85 1293.27,1419.52C1290.15,1419.59 1287.35,1419.22 1284.84,1420.84C1285.3,1423.04 1285.04,1422.21 1286.49,1424.15C1282.69,1426.97 1263.31,1426.07 1257.12,1426.23Z" style="fill:rgb(190,172,134);fill-rule:nonzero;"/>
            </g>
            <g transform="matrix(0.5,0,0,0.5,-201.509,-201.007415)">
                <path d="M659.764,589.512C660.638,589.734 662.909,590.634 662.863,591.049C661.955,599.331 673.588,611.358 678.106,617.561C693.603,638.835 708.041,658.248 728.061,675.562C740.451,686.279 757.481,689.283 766.898,700.849C764.329,740.156 765.589,748.012 785.691,783.931C790.467,792.465 794.822,802.587 800.607,811.194C803.158,812.598 801.82,812.363 804.773,811.803L805.495,810.082C804.415,798.695 785.746,768.481 779.296,756.682L798.043,762.32C809.578,782.023 814.051,799.193 818.06,821.242C795.744,836.486 811.767,833.96 809.403,851.354C807.606,864.579 811.131,858.785 816.947,866.492C813.949,885.745 824.405,876.209 826.018,894.72C828.881,898.19 835.599,901.769 839.687,904.277C850.785,943.46 869.616,954.776 872.398,996.559C861.914,986.346 851.202,974.907 839.588,966.02C826.742,956.191 809.632,950.813 798.731,938.458C789.13,927.575 796.606,921.483 791.687,909.534C788.258,901.203 784.275,892.51 780.322,884.369C772.555,868.372 766.246,852.973 759.535,836.573C749.679,812.487 747.341,785.083 736.405,762.417C726.145,741.155 704.323,726.12 682.185,719.342C662.705,713.538 645.539,716.548 627.834,726.401C577.359,754.492 540.2,822.218 570.258,877.411C582.31,899.542 603.397,908.917 627.153,915.4C636.99,932.821 647.181,950.247 657.456,967.389C660.493,972.455 666.937,982.683 673.034,983.271C677.722,983.723 680.93,981.019 684.551,978.489C717.53,1028.06 720.934,1037.08 772.876,1065.89C790.528,1075.32 811.872,1083.79 830.867,1090.17C847.554,1095.78 871.387,1100.95 886.72,1108.18C888.652,1112.45 888.527,1116.51 891.831,1119.61L893.322,1119.43C894.779,1116.1 895.288,1114.65 897.456,1111.65C904.02,1111.31 914.132,1119.92 918.789,1124.32C927.005,1161.46 927.222,1201.61 893.819,1225.86C899.521,1212.75 901.634,1206.72 904.429,1192.87C907.537,1177.48 904.042,1135.32 895.558,1123.54L893.888,1123.3C892.684,1124.96 891.983,1126.49 892.339,1128.54C896.556,1152.84 901.554,1176.41 895.314,1201.01C892.455,1212.28 885.854,1230.21 874.139,1235.53C841.984,1250.13 801.116,1223.25 768.955,1217.09C668.214,1192.79 602.258,1211.65 516.79,1261.22C515.48,1245.13 520.928,1220.92 512.402,1207.05C507.801,1199.56 500.21,1194.61 494.975,1185.47C493.598,1159.23 501.629,1155.82 507.021,1133.82L507.349,1132.44C505.551,1124.05 498.827,1110.53 498.377,1103.26C498.007,1097.27 504.854,1077.03 506.563,1069.99C501.875,1053.48 488.219,1044.61 486.53,1032.3C483.603,1010.98 493.756,981.96 495.959,959.7C499.066,928.304 500.43,896.824 505.033,865.921C520.741,760.462 541.012,710.334 628.561,645.64C629.171,626.772 634.324,627.018 647.441,615.136C649.696,604.326 650.719,596.643 659.764,589.512Z" style="fill:rgb(66,99,73);fill-rule:nonzero;"/>
            </g>
            <g transform="matrix(0.5,0,0,0.5,-201.509,-201.007415)">
                <path d="M770.306,1084.4C778.447,1085.32 798.434,1093.98 805.239,1099.49C833.763,1122.58 813.26,1163.41 784.867,1175.53C773.617,1180.33 766.831,1181.55 754.592,1182.61C753.314,1182.61 752.914,1182.32 751.63,1181.92L750.425,1179.55C750.664,1178.48 751.406,1174.99 753.013,1174.95C780.183,1174.19 813.536,1155.14 811.251,1124.28C809.535,1101.1 784.629,1101.71 770.645,1091.05C768.934,1087.6 769.355,1088.96 770.306,1084.4Z" style="fill:rgb(13,13,10);fill-rule:nonzero;"/>
            </g>
            <g transform="matrix(0.5,0,0,0.5,-201.509,-201.007415)">
                <path d="M667.81,1215.41C707.532,1210.07 763.82,1221.75 801.353,1235.45C850.184,1253.28 877.902,1255.22 916.559,1215.48C943.098,1231.87 983.593,1268.05 1004.59,1291.02C1030.78,1321.23 1070.22,1364.15 1070.71,1405.56C1071,1429.91 1047.55,1468.31 1023.33,1474.21C996.003,1480.87 955.258,1478.35 926.105,1477.16C942.083,1452.28 948.957,1428.84 938.285,1399.88C920.305,1351.1 884.054,1310.04 846.922,1274.62C840.579,1268.58 828.264,1256.06 820.819,1252.36C818.178,1253.89 819.169,1252.82 817.929,1255.82C819.47,1262.42 829.463,1269.07 834.649,1273.93C846.752,1285.06 858.42,1296.66 869.628,1308.7C899.751,1341.47 936.928,1389.45 934.936,1435.55C930.756,1456.87 921.514,1471.98 906.458,1487.57C871.031,1524.26 820.302,1512.95 774.525,1506.47C739.614,1501.52 704.783,1496.02 670.047,1489.96L616.214,1480.97C583.691,1475.41 566.427,1477.01 570.008,1435.38C572.358,1409.71 584.609,1385.96 604.166,1369.17C646.738,1388.59 687.916,1392.9 728.894,1409.94C742.898,1415.9 756.41,1422.95 769.305,1431.02C776.725,1435.77 790.275,1446.76 797.408,1449.25C800.489,1447.94 799.421,1448.97 800.987,1446.37C799.165,1440.3 787.224,1433.74 782.276,1430.02C734.68,1394.21 679.098,1388.3 624.682,1369.16C577.283,1352.5 535.336,1318.31 526.459,1265.99C558.19,1240.34 627.315,1219.24 667.81,1215.41Z" style="fill:rgb(130,142,94);fill-rule:nonzero;"/>
            </g>
            <g transform="matrix(0.5,0,0,0.5,-201.509,-201.007415)">
                <path d="M654.297,725.192C667.715,724.053 675.782,724.815 688.067,730.065C741.331,752.824 733.591,790.142 751.111,837.082C761.632,865.271 775.997,891.383 786.666,918.371C728.125,934.842 720.058,938.432 674.047,976.488C667.601,969.101 661.318,958.077 656.133,949.506C640.338,922.903 624.933,895.815 610.01,868.713C607.923,864.924 604.898,860.245 600.538,859.206C597.625,860.502 598.741,859.51 597.144,862.358C597.548,865.6 619.164,900.58 622.324,906.369C614.578,903.645 606.985,900.812 599.984,896.486C584.546,887.036 573.607,871.723 569.674,854.055C557.64,800.806 602.465,736.378 654.297,725.192Z" style="fill:rgb(159,177,128);fill-rule:nonzero;"/>
            </g>
            <g transform="matrix(0.5,0,0,0.5,-201.509,-201.007415)">
                <path d="M782.591,927.038C786.405,927.683 794.248,946.895 799.228,949.852C826.919,966.3 845.499,979.283 868.458,1002.53C891.557,1025.93 925.518,1051.6 956.37,1063.3C970.527,1047.29 983.361,1053.66 1002.04,1049.12C1009.88,1047.21 1023.3,1039.66 1030.72,1040.07C1032.51,1043.03 1032.13,1041.43 1031.55,1045.11C1023.97,1056.29 1004.51,1059.33 999.652,1069.44C994.386,1080.4 1029.28,1129.68 1016.5,1135.08C1008.23,1133.02 1005.23,1128.12 999.294,1121.67L992.087,1128.31C984.924,1132.67 959.208,1138.38 951.089,1136.19C932.569,1131.2 921.622,1111.85 903.173,1105.07C886.09,1098.79 868.723,1094.05 851.405,1088.47C812.247,1076.46 763.269,1057.55 732.584,1029.9C721.031,1019.49 698.818,986.552 690.524,972.933C714.681,949.864 750.838,936.2 782.591,927.038Z" style="fill:rgb(244,210,182);fill-rule:nonzero;"/>
            </g>
            <g transform="matrix(0.5,0,0,0.5,-201.509,-201.007415)">
                <path d="M745.943,1027.74C752.645,1027.9 770.823,1030.63 775.006,1036L774.153,1040.25C766.056,1038.98 753.204,1038.07 746.611,1033.98C744.582,1030.43 745.059,1032.39 745.943,1027.74Z" style="fill:rgb(13,13,10);fill-rule:nonzero;"/>
            </g>
            <g transform="matrix(0.5,0,0,0.5,-201.509,-201.007415)">
                <path d="M1096.71,920.188C1129.61,908.825 1118.68,901.878 1136.82,882.795C1149.99,868.927 1219.57,874 1231.82,893.005C1256.26,930.91 1264.46,977.383 1280.81,1019.1C1274.99,1024.55 1272.02,1026.54 1265.24,1030.86C1263.9,1000.59 1250.3,973.885 1245.02,944.203C1244.58,941.781 1242.49,939.706 1239.99,939.442C1234.78,944.364 1239.93,959.12 1241.69,965.252C1251.57,999.57 1267.63,1031.36 1249.72,1066.41C1249.88,1058.09 1251.07,1046.74 1247.17,1039.78C1244.38,1038.02 1245.84,1038.29 1242.64,1038.88C1239.01,1043.77 1241.73,1052.52 1241.34,1058.62C1239.3,1090 1218.39,1100.37 1189.53,1098.72C1182.52,1098.32 1174.03,1099.56 1167.68,1094.92C1152.13,1081.14 1166.45,1056.5 1168.15,1040.14C1167.65,1039.46 1167.16,1038.79 1166.66,1038.11L1163.76,1037.23C1157.35,1040.74 1156.05,1055.1 1155.04,1062.05C1143.68,1033.61 1162.77,1011.23 1172.43,986.103C1174.7,980.216 1173.87,969.411 1176.63,962.612C1179.9,954.556 1198.1,925.741 1185.59,920.362C1180.29,922.243 1181.16,929.291 1179.67,934.638C1177.65,941.899 1175.48,948.381 1171.37,954.766C1165.17,975.864 1163.96,987.589 1152.99,1007.67C1151.07,1012.34 1148.07,1022.65 1146.37,1027.86C1137.82,988.567 1111.93,997.502 1078.84,991.782C1091.53,989.938 1104.07,993.146 1113.57,984.94L1113.45,983.397C1100.27,976.285 1058.4,998.036 1046.74,956.248C1059.38,948.851 1064.52,944.539 1063.03,929.058C1074.41,925.97 1085.36,923.951 1096.71,920.188Z" style="fill:url(#_Linear1);fill-rule:nonzero;"/>
            </g>
            <g transform="matrix(0.5,0,0,0.5,-201.509,-201.007415)">
                <path d="M1063.03,929.058C1074.41,925.97 1085.36,923.951 1096.71,920.188C1098.43,928.176 1100.14,937.203 1100.89,945.33C1105.06,990.866 1146.22,961.88 1152.99,1007.67C1151.07,1012.34 1148.07,1022.65 1146.37,1027.86C1137.82,988.567 1111.93,997.502 1078.84,991.782C1091.53,989.938 1104.07,993.146 1113.57,984.94L1113.45,983.397C1100.27,976.285 1058.4,998.036 1046.74,956.248C1059.38,948.851 1064.52,944.539 1063.03,929.058Z" style="fill:rgb(190,146,97);fill-rule:nonzero;"/>
            </g>
            <g transform="matrix(0.5,0,0,0.5,-201.509,-201.007415)">
                <path d="M1132.54,905.762C1137.42,908.576 1143.6,912.129 1144.58,917.983C1142.91,919.992 1143.92,919.133 1140.84,919.864C1135.1,918.342 1129.61,921.572 1127.61,915.153C1128.41,911.106 1130.14,909.27 1132.54,905.762Z" style="fill:rgb(13,13,10);fill-rule:nonzero;"/>
            </g>
            <g transform="matrix(0.5,0,0,0.5,-201.509,-201.007415)">
                <path d="M872.441,931.522C926.273,930.771 981.624,932.016 1035.77,931.716C1035.89,947.518 1038.11,962.39 1048.16,975.541C1069.49,1003.46 1089.83,1000.51 1121.08,1004.16C1113.03,1022.6 1103.53,1033.23 1111.21,1053.24C1103.19,1074.47 1098.36,1089.81 1122.45,1100.92C1118.02,1109.71 1109.49,1119.61 1103.14,1127.44C1075.03,1114.24 1056.68,1093.08 1024.94,1079.94C1019.43,1078.17 1012.59,1076.48 1008.47,1072.68C1008.56,1065.27 1046.98,1054.51 1039.18,1038.99C1030.86,1022.43 1016.67,1037.99 1006.03,1040.4C983.127,1045.58 973.868,1039.49 953.073,1053.74C927.583,1042 900.369,1022.2 880.056,1002.69C879.856,988.726 879.011,982.365 875.255,968.984L934.488,968.996C943.786,968.99 960.067,969.415 968.759,968.542C971.578,965.962 970.884,967.46 971.612,964.293L970.297,962.784C960.848,959.046 888.437,961.074 871.878,961.059C868.386,951.085 862.835,940.983 857.959,931.532L872.441,931.522Z" style="fill:rgb(116,166,140);fill-rule:nonzero;"/>
            </g>
            <g transform="matrix(0.5,0,0,0.5,-201.509,-201.007415)">
                <path d="M928.884,1007.02C952.165,1006.19 978.185,1007.34 1001.79,1006.78C1011.04,1006.57 1042.71,1006.26 1049.69,1007.56C1051.78,1010.58 1051.02,1010.41 1050.98,1014.97C1028.05,1015.93 1001.1,1014.27 977.822,1015.01C970.666,1015.23 936.234,1015.39 930.417,1014.41C928.329,1011.41 929.051,1011.41 928.884,1007.02Z" style="fill:rgb(13,13,10);fill-rule:nonzero;"/>
            </g>
            <g transform="matrix(0.5,0,0,0.5,-201.509,-201.007415)">
                <path d="M1057.22,1056.21C1064.18,1055.99 1078.23,1054.17 1082.98,1058.1C1084.07,1061.67 1083.94,1059.77 1082.35,1063.99C1075.83,1064.19 1061.02,1065.63 1056.37,1062.17C1055.19,1058.5 1055.24,1060.43 1057.22,1056.21Z" style="fill:rgb(13,13,10);fill-rule:nonzero;"/>
            </g>
            <g transform="matrix(0.5,0,0,0.5,-201.509,-201.007415)">
                <path d="M793.305,580.016C794.74,579.005 798.346,576.584 799.78,575.667C817.941,564.045 873.362,572.214 893.529,577.522C905.814,592.767 905.021,599.203 925.095,605.91C922.937,620.546 908.028,660.416 897.88,668.207C873.48,686.941 882.521,685.931 875.848,718.4C869.921,715.564 857.497,704.063 852.301,707.233C851.716,709.985 852.825,713.382 853.458,716.263C852.193,719.533 846.08,723.677 843.01,726.121C836.903,722.9 830.457,715.989 824.513,716.259C822.162,718.374 822.859,717.114 822.223,720.094C825.309,726.301 834.211,726.033 833.175,733.338C828.984,737.314 826.692,737.114 820.831,738.665C820.414,739.65 819.991,740.632 819.562,741.611C810.042,763.218 793.688,754.517 776.582,746.73C770.452,727.697 776.939,713.105 772.6,696.805C769.878,686.58 743.193,679.25 732.733,669.721C716.607,655.03 706.189,643.011 693.621,624.941C699.786,616.259 705.096,610.348 711.498,600.644C724.661,611.049 732.472,611.979 748.454,609.84C751.148,609.839 753.962,609.907 756.637,609.739C754.052,619.957 752.097,632.26 757.035,642.04C759.573,647.066 766.405,651.496 771.797,648.265C772.648,639.645 764.734,640.72 762.789,636.218C756.775,622.302 766.308,597.273 779.519,590.131C783.648,587.898 787.605,586.139 791.827,587.665C804.953,592.411 796.278,605.273 800.293,612.271C803.155,613.529 801.681,613.365 804.883,612.548C812.408,599.177 805.524,586.885 793.305,580.016Z" style="fill:rgb(244,210,182);fill-rule:nonzero;"/>
            </g>
            <g transform="matrix(0.5,0,0,0.5,-201.509,-201.007415)">
                <path d="M855.587,655.5C857.121,655.788 858.022,656.129 859.507,656.599C865.092,662.702 872.975,669.814 872.883,677.482C866.761,677.198 862.831,672.965 859.1,668.324C855.091,663.339 854.668,661.433 855.587,655.5Z" style="fill:rgb(13,13,10);fill-rule:nonzero;"/>
            </g>
            <g transform="matrix(0.5,0,0,0.5,-201.509,-201.007415)">
                <path d="M779.086,618.311C782.018,618.747 781.945,618.533 784.024,620.578C785.065,624.136 783.19,628.169 782.015,631.886C778.061,631.033 777.536,630.414 775.981,627.059C776.147,623.059 777.12,621.972 779.086,618.311Z" style="fill:rgb(13,13,10);fill-rule:nonzero;"/>
            </g>
            <g transform="matrix(0.5,0,0,0.5,-201.509,-201.007415)">
                <path d="M1046.55,676.294C1076.45,673.262 1086.96,687.819 1113.09,694.346C1151.05,703.829 1190.4,711.393 1228.8,719.266C1213.49,728.474 1182.95,740.063 1165.77,748.181C1139.5,760.601 1116.22,773.084 1090.75,786.944L1073.48,795.979C1048.03,785.29 1022.66,774.433 997.357,763.409C972.337,752.503 938.137,737.716 915.668,722.015C930.446,716.119 949.333,711.931 964.438,706.001C993.234,694.695 1015.39,681.57 1046.55,676.294Z" style="fill:rgb(159,177,128);fill-rule:nonzero;"/>
            </g>
            <g transform="matrix(0.5,0,0,0.5,-201.509,-201.007415)">
                <path d="M927.588,1131.9C934.852,1136 943.277,1143.42 952.356,1144.35C967.861,1145.92 986.379,1141.36 998.874,1132.39C1004.72,1139.15 1006.55,1140.1 1014.22,1144.04C1013.96,1150.53 1011.97,1161.45 1018.75,1164.47C1030.1,1161.33 1025.08,1170.28 1033.25,1178.44C1036.87,1179.5 1036.24,1178.87 1040.71,1177.11C1047.34,1179.7 1047.21,1201.37 1054.82,1206.32C1058.4,1205.92 1060.23,1203.49 1063,1200.93C1066.26,1208.38 1068.6,1225.64 1076.68,1227.31L1080.63,1224.52C1086.77,1229.05 1086.21,1234.82 1092.1,1237.19C1096.67,1236.74 1099.55,1234.45 1103.57,1232.05C1104.47,1240.1 1106.43,1258.63 1113.55,1262.86C1116.26,1261.96 1117.24,1261.02 1119.5,1259.36C1120.47,1262.98 1123.52,1275.26 1121.76,1277.92C1088.99,1281.93 1059.89,1294.77 1025.27,1301.76C991.253,1266.24 963.246,1235.55 920.318,1208.63C935.194,1177.17 930.151,1165.19 927.588,1131.9Z" style="fill:rgb(116,166,140);fill-rule:nonzero;"/>
            </g>
            <g transform="matrix(0.5,0,0,0.5,-201.509,-201.007415)">
                <path d="M979.574,1233.21C992.032,1233.03 1037.54,1233.02 1047.01,1234.48C1048.64,1237.55 1048.14,1235.86 1047.72,1239.92L1045.98,1240.89C1026.78,1240.92 1007.57,1241.34 988.379,1241.24C984.16,1241.22 979.287,1241.39 976.782,1237.83C977.429,1234.27 976.642,1235.82 979.574,1233.21Z" style="fill:rgb(156,198,175);fill-rule:nonzero;"/>
            </g>
            <g transform="matrix(0.5,0,0,0.5,-201.509,-201.007415)">
                <path d="M942.668,1182.13C956.737,1181.69 971.039,1181.76 985.129,1181.58C990.081,1181.51 997.314,1181.01 1000.3,1185.18C999.902,1188.35 1000.5,1186.91 998.018,1189.43C988.605,1189.42 947.778,1190.86 942.838,1188.31C941.343,1184.72 941.736,1186.67 942.668,1182.13Z" style="fill:rgb(13,13,10);fill-rule:nonzero;"/>
            </g>
            <g transform="matrix(0.5,0,0,0.5,-201.509,-201.007415)">
                <path d="M1047.99,1274.49C1053.05,1274.35 1067.67,1273.05 1069.61,1279.19C1065.58,1282.71 1059.58,1282.04 1054.25,1282.07C1043.62,1282.49 1040.16,1283.45 1030.52,1279.21L1030.17,1277.15C1036.11,1274.03 1041.3,1274.57 1047.99,1274.49Z" style="fill:rgb(156,198,175);fill-rule:nonzero;"/>
            </g>
            <g transform="matrix(0.5,0,0,0.5,-201.509,-201.007415)">
                <path d="M813.479,494.191C824.459,493.531 831.745,493.417 842.592,496.137C872.025,503.519 903.346,532.149 918.306,557.782C895.888,558.399 876.23,559.722 853.153,559.939C819.41,560.47 778.117,552.424 745.834,542.415C764.341,518.001 782.239,500.411 813.479,494.191Z" style="fill:rgb(144,128,95);fill-rule:nonzero;"/>
            </g>
            <g transform="matrix(0.5,0,0,0.5,-201.509,-201.007415)">
                <path d="M855.939,813.066C864.798,813.235 870.19,817.208 876.546,822.983C878.142,831.564 883.672,839.727 884.186,844.177C885.579,856.225 881.768,857.123 885.796,871.125C881.313,880.933 882.886,889.845 878.608,896.706C874.15,903.853 858.968,920.289 849.992,913.266C848.265,909.155 848.133,910.978 849.235,907.591C854.51,904.936 858.349,907.626 864.686,905.714C865.943,894.92 828.923,901.528 832.295,887.036C837.407,884.63 869.648,892.992 873.221,883.329L872.051,881.215C859.39,878.796 846.617,881.564 827.631,877.425C825.022,875.783 823.406,874.236 822.737,871.277C828.728,862.415 868.996,871.879 875.539,859.366L874.848,857.827C865.945,856.513 814.402,866.862 816.638,852.846C825.316,842.776 862.284,840.667 869.534,836.792C871.23,834.042 870.987,835.474 870.375,832.37C860.482,824.558 827.262,841.177 815.555,840.089C812.803,837.161 813.364,838.794 813.265,835.242C818.368,826.481 845.884,816.669 855.939,813.066Z" style="fill:rgb(244,210,182);fill-rule:nonzero;"/>
            </g>
            <g transform="matrix(0.5,0,0,0.5,-201.509,-201.007415)">
                <path d="M742.677,548.997C763.32,554.689 784.259,559.24 805.402,562.63C785.409,573.569 763.496,587.009 756.637,609.739C753.962,609.907 751.148,609.839 748.454,609.84C749.146,605.243 749.746,607.025 747.936,603.878C733.742,600.194 733.185,606.823 716.528,594.78C725.024,579.818 733.828,563.645 742.677,548.997Z" style="fill:rgb(144,128,95);fill-rule:nonzero;"/>
            </g>
            <g transform="matrix(0.5,0,0,0.5,-201.509,-201.007415)">
                <path d="M1309.83,1373.46C1317.98,1376.93 1324.53,1381.63 1331.22,1387.68C1334.12,1390.31 1340.5,1397.96 1344.16,1400C1345.48,1399.76 1346.79,1399.51 1348.1,1399.26C1351.33,1403.69 1356.99,1410.74 1360.51,1414.45C1365.43,1419.65 1369.73,1422.37 1375.3,1425.92C1358.19,1421.52 1347.14,1418.41 1332.49,1430.75L1324.51,1439.27C1316.34,1439.55 1302.47,1440.43 1294.57,1438.88C1293.12,1438.59 1293.24,1437.74 1292.58,1436.04C1297.14,1415.93 1320.89,1419.99 1327.77,1414.48C1326.75,1404.44 1311.25,1404.11 1309.83,1373.46Z" style="fill:rgb(146,105,67);fill-rule:nonzero;"/>
            </g>
            <g transform="matrix(0.5,0,0,0.5,-201.509,-201.007415)">
                <path d="M1128.96,1007.7C1149.47,1025.03 1139.71,1069.8 1127.68,1089.01C1125.8,1092 1125.56,1092.05 1122.45,1092.8C1104.93,1083.53 1113.59,1067.48 1119.65,1053.34L1114.98,1040.09C1117.67,1028.06 1123.02,1018.38 1128.96,1007.7Z" style="fill:rgb(113,78,47);fill-rule:nonzero;"/>
            </g>
            <g transform="matrix(0.5,0,0,0.5,-201.509,-201.007415)">
                <path d="M529.702,1332.12C533.454,1332.48 537.47,1332.62 540.927,1333.97C541.611,1340.41 532.107,1342.49 527.882,1349.48C517.071,1367.37 512.449,1381.35 507.295,1401.2L506.552,1401.65C503.664,1401.62 498.818,1398.12 496.087,1396.46C501.029,1378.92 512.452,1340.63 529.702,1332.12Z" style="fill:rgb(91,89,78);fill-rule:nonzero;"/>
            </g>
            <g transform="matrix(0.5,0,0,0.5,-201.509,-201.007415)">
                <path d="M906.228,564.074C930.769,564.527 942.679,573.163 929.11,597.543C915.639,600.319 893.754,573.307 906.228,564.074Z" style="fill:rgb(144,128,95);fill-rule:nonzero;"/>
            </g>
            <g transform="matrix(0.5,0,0,0.5,-201.509,-201.007415)">
                <path d="M1288.59,1024.01C1291.24,1026.96 1292.75,1032.54 1294.01,1036.38C1285.23,1044.52 1275.82,1049.93 1265.34,1055.49L1263.07,1055.62C1262.38,1052.81 1264.86,1043.64 1265.68,1040.02C1273.06,1035.78 1281.15,1029.06 1288.59,1024.01Z" style="fill:rgb(190,172,134);fill-rule:nonzero;"/>
            </g>
            <g transform="matrix(0.5,0,0,0.5,-201.509,-201.007415)">
                <path d="M666.671,591.864C673.09,593.866 693.711,604.27 695.49,610.412L693.307,614.045C691.982,615.513 690.46,617.024 689.075,618.458C687.172,618.267 670.165,595.74 666.671,591.864Z" style="fill:rgb(66,99,73);fill-rule:nonzero;"/>
            </g>
            <g transform="matrix(0.5,0,0,0.5,-201.509,-201.007415)">
                <path d="M1046.97,932.181C1050.18,931.963 1051.88,931.502 1054.7,932.988C1058.35,938.937 1053.2,942.82 1048.84,946.804C1044.76,946.723 1046.44,947.404 1043.49,945.098C1041.03,940.071 1042.23,935.237 1046.97,932.181Z" style="fill:rgb(146,105,67);fill-rule:nonzero;"/>
            </g>
            <g transform="matrix(0.5,0,0,0.5,-201.509,-201.007415)">
                <path d="M822.46,808.639C826.865,809.003 830.689,808.935 833.067,813.014L831.585,814.74C828.983,816.307 828.618,816.798 825.586,817.213C823.226,814.984 823.298,812.298 822.46,808.639Z" style="fill:rgb(159,177,128);fill-rule:nonzero;"/>
            </g>
            <g transform="matrix(0.5,0,0,0.5,-201.509,-201.007415)">
                <path d="M1118.66,891.404L1120.39,892.696C1119.96,896.336 1117.12,899.613 1114.96,902.744L1113.82,902.292C1112.83,898.287 1116.31,894.325 1118.66,891.404Z" style="fill:rgb(144,128,95);fill-rule:nonzero;"/>
            </g>
        </g>
    </g>
    <defs>
        <linearGradient id="_Linear1" x1="0" y1="0" x2="1" y2="0" gradientUnits="userSpaceOnUse" gradientTransform="matrix(-169.85,-113.232,113.232,-169.85,1266,1037)"><stop offset="0" style="stop-color:rgb(119,85,52);stop-opacity:1"/><stop offset="1" style="stop-color:rgb(148,108,69);stop-opacity:1"/></linearGradient>
    </defs>
</svg>
